<svg width="22" height="24" viewBox="0 0 22 24" fill="none" xmlns="http://www.w3.org/2000/svg">
<path d="M1.00382 7.96935C1.00382 7.22792 1.00382 6.71026 1.00382 6.18924C0.999066 5.59609 1.26454 5.19032 1.82538 4.95913C3.37004 4.32284 4.54127 3.27405 5.28814 1.78377C5.51967 1.32745 5.88767 1.09424 6.40776 1.09424H15.6038C16.1103 1.09424 16.4776 1.32206 16.703 1.76827C17.454 3.26057 18.6164 4.31206 20.1658 4.94835C20.7341 5.18223 21.0125 5.59204 20.9996 6.19935C20.9751 7.37486 20.9996 8.55441 20.912 9.72587C20.7538 11.8828 20.0884 13.9049 19.0367 15.7922C17.2944 18.9277 14.7612 21.2525 11.6019 22.9328C11.4217 23.0374 11.2171 23.093 11.0084 23.0942C10.7997 23.0954 10.5944 23.0421 10.413 22.9396C7.09353 21.1729 4.46997 18.71 2.73656 15.3655C1.5421 13.0838 0.94617 10.5401 1.00382 7.96935ZM11.0119 1.82219C9.50388 1.82219 7.99656 1.82219 6.48856 1.82219C6.23598 1.82219 6.0547 1.89903 5.93588 2.13629C5.11364 3.7789 3.81952 4.92341 2.12616 5.63181C1.86476 5.74505 1.74186 5.89738 1.74594 6.18317C1.7568 6.93134 1.74594 7.67952 1.75137 8.42837C1.76873 10.8853 2.41024 13.2982 3.61651 15.4437C5.28067 18.4391 7.70596 20.66 10.7247 22.2703C10.9487 22.3896 11.1395 22.3451 11.3459 22.2345C13.6592 20.9957 15.6404 19.3679 17.2089 17.2656C18.8445 15.073 19.8806 12.6309 20.1447 9.90854C20.2602 8.7155 20.2242 7.50831 20.25 6.30719C20.2608 5.81987 20.2208 5.7828 19.7795 5.59137C18.1499 4.88836 16.9033 3.77688 16.0994 2.1983C15.9562 1.91656 15.7647 1.81613 15.4585 1.81815C13.9763 1.82758 12.4941 1.82219 11.0119 1.82219Z" fill="url(#paint0_linear_234_1195)" stroke="url(#paint1_linear_234_1195)" stroke-width="0.3"/>
<path d="M14.6327 8.56665C14.8234 8.56665 14.983 8.56665 15.1419 8.56665C15.9404 8.56665 16.4204 9.04252 16.4224 9.84125C16.4265 11.2203 16.4224 12.5994 16.4224 13.9778V14.8102C16.4224 15.7067 15.9628 16.1663 15.0645 16.167H7.95359C7.58899 16.167 7.22506 16.1711 6.86113 16.167C6.09117 16.1549 5.61589 15.6757 5.61182 14.912C5.61182 13.2143 5.61182 11.516 5.61182 9.81698C5.61182 9.05128 6.09389 8.57137 6.86045 8.56665C7.02747 8.56665 7.19518 8.56665 7.39412 8.56665C7.39412 8.00249 7.37647 7.45787 7.40023 6.91528C7.4075 6.54662 7.45624 6.17992 7.54553 5.822C8.01266 4.14501 9.67954 3.03488 11.3933 3.23305C13.1667 3.4393 14.5165 4.83387 14.617 6.58433C14.6483 7.14647 14.6286 7.71063 14.6327 8.27412V8.56665ZM11.0178 15.4323H15.0801C15.5364 15.4323 15.6776 15.2942 15.6776 14.8513C15.6776 13.1968 15.6776 11.5416 15.6776 9.88573C15.6776 9.43548 15.5418 9.29932 15.0876 9.29932C12.3717 9.29932 9.65578 9.29932 6.93989 9.29932C6.49788 9.29932 6.35461 9.43413 6.35393 9.86618C6.35393 11.5288 6.35393 13.1925 6.35393 14.8574C6.35393 15.2908 6.49855 15.4317 6.93242 15.4323H11.0178ZM13.8539 8.5525C13.8539 7.81107 13.9184 7.09053 13.8396 6.38616C13.6882 5.03136 12.5496 4.0466 11.1441 3.95965C9.83435 3.88012 8.54294 4.74894 8.27135 6.03769C8.10093 6.84653 8.14506 7.69918 8.09143 8.55048L13.8539 8.5525Z" fill="url(#paint2_linear_234_1195)" stroke="url(#paint3_linear_234_1195)" stroke-width="0.3"/>
<path d="M10.6449 13.3325C10.6449 13.2489 10.6381 13.164 10.6449 13.0811C10.6612 12.9885 10.6503 12.8932 10.6134 12.8067C10.5766 12.7201 10.5154 12.646 10.4371 12.5931C10.0522 12.2877 10.0508 11.7121 10.3964 11.3636C10.4766 11.2827 10.5721 11.2183 10.6775 11.1743C10.7829 11.1302 10.896 11.1073 11.0104 11.1069C11.1247 11.1066 11.238 11.1287 11.3437 11.1721C11.4494 11.2154 11.5453 11.2792 11.626 11.3596C11.9709 11.702 11.9709 12.283 11.5914 12.5904C11.5153 12.6459 11.4557 12.7208 11.419 12.8072C11.3823 12.8936 11.3699 12.9882 11.3829 13.0811C11.3958 13.2981 11.3911 13.5172 11.3829 13.7355C11.3741 13.995 11.2247 14.1602 11.0116 14.1595C10.7984 14.1588 10.6497 13.993 10.6429 13.7355C10.6408 13.6014 10.6456 13.4666 10.6449 13.3325Z" fill="url(#paint4_linear_234_1195)" stroke="url(#paint5_linear_234_1195)" stroke-width="0.3"/>
<defs>
<linearGradient id="paint0_linear_234_1195" x1="11" y1="1.09424" x2="11" y2="23.0942" gradientUnits="userSpaceOnUse">
<stop stop-color="#FF0A25"/>
<stop offset="1" stop-color="#FD4D3D"/>
</linearGradient>
<linearGradient id="paint1_linear_234_1195" x1="11" y1="1.09424" x2="11" y2="23.0942" gradientUnits="userSpaceOnUse">
<stop stop-color="#FF0A25"/>
<stop offset="1" stop-color="#FD4D3D"/>
</linearGradient>
<linearGradient id="paint2_linear_234_1195" x1="11.018" y1="3.21021" x2="11.018" y2="16.1688" gradientUnits="userSpaceOnUse">
<stop stop-color="#FF0A25"/>
<stop offset="1" stop-color="#FD4D3D"/>
</linearGradient>
<linearGradient id="paint3_linear_234_1195" x1="11.018" y1="3.21021" x2="11.018" y2="16.1688" gradientUnits="userSpaceOnUse">
<stop stop-color="#FF0A25"/>
<stop offset="1" stop-color="#FD4D3D"/>
</linearGradient>
<linearGradient id="paint4_linear_234_1195" x1="11.0116" y1="11.1069" x2="11.0116" y2="14.1595" gradientUnits="userSpaceOnUse">
<stop stop-color="#FF0A25"/>
<stop offset="1" stop-color="#FD4D3D"/>
</linearGradient>
<linearGradient id="paint5_linear_234_1195" x1="11.0116" y1="11.1069" x2="11.0116" y2="14.1595" gradientUnits="userSpaceOnUse">
<stop stop-color="#FF0A25"/>
<stop offset="1" stop-color="#FD4D3D"/>
</linearGradient>
</defs>
</svg>
