<svg width="24" height="25" viewBox="0 0 24 25" fill="none" xmlns="http://www.w3.org/2000/svg">
<path d="M21.7728 10.8146V21.0556C21.7728 21.7039 21.5153 22.3256 21.0568 22.784C20.5984 23.2425 19.9767 23.5 19.3284 23.5H4.67147C4.02338 23.4997 3.40194 23.242 2.94378 22.7836C2.48562 22.3252 2.22825 21.7037 2.22825 21.0556V10.8146M6.50236 8.52778L7.11347 1.5M6.50236 8.52778C6.50236 12.0747 11.9999 12.0747 11.9999 8.52778M6.50236 8.52778C6.50236 12.4096 0.201806 11.6078 1.08425 8.22467L2.36147 3.32722C2.49797 2.80415 2.80401 2.34107 3.23172 2.01046C3.65942 1.67984 4.18466 1.50032 4.72525 1.5H19.2746C19.8152 1.50032 20.3404 1.67984 20.7681 2.01046C21.1958 2.34107 21.5019 2.80415 21.6384 3.32722L22.9156 8.22467C23.798 11.609 17.4975 12.4096 17.4975 8.52778M11.9999 8.52778V1.5M11.9999 8.52778C11.9999 12.0747 17.4975 12.0747 17.4975 8.52778M17.4975 8.52778L16.8864 1.5" stroke="#949494" stroke-width="1.5" stroke-linecap="round" stroke-linejoin="round"/>
</svg>
