<svg width="31" height="20" viewBox="0 0 31 20" fill="none" xmlns="http://www.w3.org/2000/svg">
<path d="M30.6732 9.50514C30.5061 8.39017 29.9655 7.59843 28.9337 7.14325L28.8777 7.11569C28.627 6.99292 28.607 6.84426 28.7841 6.62461C28.9094 6.48259 28.9877 6.30534 29.0083 6.11712C29.029 5.9289 28.9909 5.7389 28.8994 5.57312C28.7097 5.19311 28.3906 5.00854 27.9703 5.00102C27.6578 4.99601 27.3445 4.9885 27.0329 5.00102C26.9615 5.01252 26.8885 4.99789 26.8271 4.95984C26.7657 4.92179 26.7201 4.86287 26.6987 4.7939C26.4654 4.27428 26.1981 3.77068 25.8982 3.2864C25.1914 2.15056 24.2272 1.34378 22.9447 0.920346C21.825 0.563325 20.6715 0.322635 19.5024 0.202093C16.624 -0.121121 13.7624 -0.06934 10.9133 0.444294C9.98168 0.61133 9.06512 0.849355 8.21206 1.27947C6.98803 1.89082 6.24776 2.94983 5.63115 4.11406C5.47658 4.40638 5.42227 4.82564 5.15658 4.96344C4.89088 5.10124 4.50905 5.01105 4.17485 4.99685C3.72367 4.98349 3.34936 5.11795 3.1246 5.52886C2.89985 5.93976 2.96669 6.32729 3.26414 6.6814C3.40617 6.84844 3.34769 6.98541 3.16805 7.08646C3.01432 7.16998 2.86392 7.26603 2.70768 7.34787C1.99582 7.72203 1.58475 8.30165 1.426 9.09089C1.06189 10.9197 0.929677 12.7871 1.03247 14.649C1.1022 15.833 1.29827 17.0061 1.61734 18.1484C1.71676 18.5109 1.90392 18.8048 2.27238 18.9218C2.43948 18.9752 2.48544 19.0546 2.52303 19.2141C2.56571 19.431 2.68161 19.6266 2.85134 19.7683C3.02108 19.91 3.23435 19.9892 3.45547 19.9925C4.6536 20.0025 5.85117 20.0025 7.04818 19.9925C7.40662 19.9925 7.76505 19.8146 7.84192 19.4863C7.9614 18.9727 8.30146 18.9585 8.68663 18.936C8.7588 18.9274 8.83008 18.9126 8.89968 18.8917C9.57812 18.7338 10.2541 18.5635 10.9509 18.5008C13.4332 18.2787 15.918 18.1734 18.4095 18.3129C19.5943 18.3789 20.7807 18.4273 21.9546 18.6211C22.5996 18.728 23.2196 18.971 23.8763 18.9902C24.0309 18.9953 23.9916 19.1022 24.0125 19.1823C24.147 19.7001 24.5138 19.9925 25.051 19.9966C25.6133 20.0016 26.1765 19.9966 26.7388 19.9966C27.3011 19.9966 27.8425 19.9966 28.3948 19.9966C28.998 19.9966 29.3506 19.7235 29.4859 19.1397C29.511 19.0312 29.5453 18.9811 29.6472 18.9518C30.0649 18.8357 30.2671 18.5342 30.3791 18.1384C31.1854 15.2837 31.1177 12.4049 30.6732 9.50514ZM7.99148 10.5909C7.94553 10.7579 7.81936 10.7988 7.65727 10.818C6.91366 10.9082 6.16588 10.9458 5.36963 10.9918C4.92681 10.9759 4.4255 11.0435 3.92419 10.9408C3.74452 10.9071 3.57489 10.8329 3.4282 10.7238C3.28151 10.6148 3.1616 10.4737 3.0776 10.3114C2.99359 10.1491 2.9477 9.96982 2.94339 9.78713C2.93909 9.60444 2.97649 9.42317 3.05275 9.25709C3.12962 9.0792 3.27667 9.02909 3.44795 8.99986C3.94305 8.92706 4.44815 8.965 4.92681 9.11093C5.80577 9.3548 6.69476 9.57028 7.49435 10.0296C7.60213 10.0914 7.7049 10.1624 7.81101 10.2276C7.94887 10.3153 8.03743 10.4238 7.99148 10.5917V10.5909ZM22.1819 15.769C21.7148 15.992 21.2068 15.9769 20.7105 15.9811C19.1481 15.9953 17.5849 15.9869 15.329 15.9869C14.2002 15.9619 12.3763 16.0579 10.554 15.9393C10.0925 15.9167 9.65349 15.7332 9.31326 15.4207C8.86961 15.0156 8.88882 14.5805 9.37008 14.2147C9.82627 13.8681 10.366 13.6919 10.9133 13.5758C13.8952 12.9402 16.8914 12.779 19.9068 13.3461C20.6838 13.4923 21.4625 13.6251 22.1936 13.9416C22.5963 14.1153 22.9957 14.3333 22.9915 14.8369C22.9873 15.3405 22.5871 15.576 22.1819 15.769ZM7.80265 6.68808C6.94124 6.72817 6.69643 6.349 7.10918 5.60235C7.42584 5.03026 7.70239 4.43895 8.09675 3.91028C8.70668 3.09181 9.60068 2.78697 10.5273 2.574C12.7832 2.05452 15.075 1.92757 17.3835 2.04115C18.8286 2.10268 20.265 2.29642 21.6747 2.61993C22.918 2.91308 23.847 3.57955 24.4177 4.72542C24.6032 5.09623 24.7987 5.46288 24.9758 5.83787C25.2198 6.35318 24.9909 6.69727 24.4152 6.68057C21.8961 6.60373 10.5248 6.56197 7.80265 6.68808ZM29.0013 9.86176C28.9662 10.4915 28.6955 10.8022 28.0773 10.9341C27.5617 11.0444 27.0404 10.9717 26.5925 10.9867C25.7846 10.94 25.0468 10.9032 24.3133 10.8197C24.1721 10.8022 24.0409 10.7913 23.9991 10.6251C23.9779 10.5545 23.9818 10.4788 24.0101 10.4107C24.0384 10.3426 24.0895 10.2865 24.1545 10.2518C24.3259 10.1351 24.5039 10.0283 24.6876 9.93191C25.754 9.4146 26.903 9.08838 28.0823 8.96812C28.8885 8.88544 29.0465 9.05414 29.0013 9.86426V9.86176Z" fill="#707070"/>
</svg>
