<svg width="17" height="14" viewBox="0 0 17 14" fill="none" xmlns="http://www.w3.org/2000/svg">
<path d="M9.68292 14C9.55502 14 9.43057 13.959 9.32826 13.8832L6.96392 12.1332C6.89054 12.0789 6.83099 12.0085 6.78997 11.9275C6.74894 11.8466 6.72758 11.7573 6.72757 11.6668V8.38824L2.58021 3.7841C2.28567 3.45619 2.09335 3.05132 2.02637 2.61814C1.9594 2.18496 2.02062 1.74191 2.20268 1.34224C2.38473 0.942568 2.67988 0.603289 3.05264 0.36518C3.42539 0.12707 3.8599 0.000263111 4.30394 0L12.6976 0C13.1415 0.000602321 13.5758 0.127676 13.9484 0.365957C14.3209 0.604238 14.6158 0.943593 14.7977 1.34326C14.9795 1.74292 15.0406 2.1859 14.9735 2.61898C14.9065 3.05206 14.7141 3.45682 14.4196 3.78465L10.2742 8.38824V13.4168C10.2741 13.5715 10.2118 13.7198 10.1009 13.8292C9.99005 13.9386 9.8397 14 9.68292 14ZM7.9096 11.375L9.09329 12.25V8.16676C9.09324 8.02385 9.1465 7.88592 9.24292 7.7793L13.5377 3.00945C13.681 2.84967 13.7745 2.65247 13.807 2.44152C13.8394 2.23058 13.8095 2.01486 13.7208 1.82028C13.6321 1.62571 13.4884 1.46053 13.3069 1.34461C13.1253 1.22868 12.9138 1.16692 12.6976 1.16676H4.30394C4.08809 1.16732 3.87698 1.22924 3.69586 1.3451C3.51474 1.46097 3.37129 1.62588 3.28266 1.82011C3.19403 2.01433 3.16399 2.22964 3.19612 2.44027C3.22824 2.6509 3.32119 2.84794 3.46383 3.00781L7.76081 7.7793C7.85668 7.88619 7.9096 8.02401 7.9096 8.16676V11.375Z" fill="#FF0A25"/>
</svg>
