<svg width="19" height="19" viewBox="0 0 19 19" fill="none" xmlns="http://www.w3.org/2000/svg">
<path d="M9.62641 9.19933C9.60266 9.19933 9.58682 9.19933 9.56307 9.19933C9.52349 9.19141 9.46807 9.19141 9.42057 9.19933C7.12474 9.12808 5.39099 7.32308 5.39099 5.0985C5.39099 2.83433 7.23557 0.989746 9.49974 0.989746C11.7639 0.989746 13.6085 2.83433 13.6085 5.0985C13.6006 7.32308 11.8589 9.12808 9.65016 9.19933C9.64224 9.19933 9.63432 9.19933 9.62641 9.19933ZM9.49974 2.17725C7.89266 2.17725 6.57849 3.49141 6.57849 5.0985C6.57849 6.68183 7.81349 7.95641 9.38891 8.01183C9.42849 8.00391 9.53932 8.00391 9.64224 8.01183C11.1939 7.94058 12.4131 6.666 12.421 5.0985C12.421 3.49141 11.1068 2.17725 9.49974 2.17725Z" fill="#282041"/>
<path d="M9.63427 17.8519C8.08261 17.8519 6.52302 17.4561 5.34344 16.6644C4.24302 15.9361 3.64136 14.9386 3.64136 13.854C3.64136 12.7694 4.24302 11.764 5.34344 11.0278C7.71844 9.45234 11.5659 9.45234 13.9251 11.0278C15.0176 11.7561 15.6272 12.7536 15.6272 13.8382C15.6272 14.9228 15.0255 15.9282 13.9251 16.6644C12.7376 17.4561 11.1859 17.8519 9.63427 17.8519ZM6.00052 12.0253C5.24052 12.5319 4.82886 13.1811 4.82886 13.8619C4.82886 14.5348 5.24844 15.184 6.00052 15.6828C7.97177 17.0048 11.2968 17.0048 13.268 15.6828C14.028 15.1761 14.4397 14.5269 14.4397 13.8461C14.4397 13.1732 14.0201 12.524 13.268 12.0253C11.2968 10.7111 7.97177 10.7111 6.00052 12.0253Z" fill="#282041"/>
</svg>
