<svg width="20" height="21" viewBox="0 0 20 21" fill="none" xmlns="http://www.w3.org/2000/svg">
<path d="M11.1538 15.9609C11.1538 16.1891 11.0862 16.4122 10.9594 16.602C10.8326 16.7917 10.6524 16.9396 10.4416 17.0269C10.2307 17.1143 9.99872 17.1371 9.7749 17.0926C9.55107 17.0481 9.34548 16.9382 9.18411 16.7768C9.02274 16.6155 8.91285 16.4099 8.86833 16.186C8.82381 15.9622 8.84666 15.7302 8.93399 15.5194C9.02132 15.3085 9.16921 15.1283 9.35896 15.0015C9.54871 14.8748 9.77179 14.8071 10 14.8071C10.306 14.8071 10.5995 14.9287 10.8159 15.145C11.0323 15.3614 11.1538 15.6549 11.1538 15.9609ZM10 5.57632C7.87885 5.57632 6.15385 7.12921 6.15385 9.03786V9.42247C6.15385 9.62649 6.23489 9.82214 6.37915 9.9664C6.52341 10.1107 6.71907 10.1917 6.92308 10.1917C7.12709 10.1917 7.32275 10.1107 7.46701 9.9664C7.61127 9.82214 7.69231 9.62649 7.69231 9.42247V9.03786C7.69231 7.98017 8.72789 7.11478 10 7.11478C11.2721 7.11478 12.3077 7.98017 12.3077 9.03786C12.3077 10.0956 11.2721 10.9609 10 10.9609C9.79599 10.9609 9.60033 11.042 9.45607 11.1862C9.31182 11.3305 9.23077 11.5262 9.23077 11.7302V12.4994C9.23077 12.7034 9.31182 12.8991 9.45607 13.0433C9.60033 13.1876 9.79599 13.2686 10 13.2686C10.204 13.2686 10.3997 13.1876 10.5439 13.0433C10.6882 12.8991 10.7692 12.7034 10.7692 12.4994V12.4302C12.5231 12.1081 13.8462 10.709 13.8462 9.03786C13.8462 7.12921 12.1212 5.57632 10 5.57632ZM20 10.9609C20 12.9387 19.4135 14.8721 18.3147 16.5166C17.2159 18.1611 15.6541 19.4429 13.8268 20.1997C11.9996 20.9566 9.98891 21.1546 8.0491 20.7688C6.10929 20.3829 4.32746 19.4305 2.92894 18.032C1.53041 16.6335 0.578004 14.8516 0.192152 12.9118C-0.1937 10.972 0.00433284 8.96136 0.761209 7.1341C1.51809 5.30684 2.79981 3.74505 4.4443 2.64624C6.08879 1.54743 8.02219 0.960938 10 0.960938C12.6513 0.963737 15.1932 2.0182 17.068 3.89296C18.9427 5.76772 19.9972 8.30963 20 10.9609ZM18.4615 10.9609C18.4615 9.2874 17.9653 7.65145 17.0355 6.25996C16.1057 4.86846 14.7842 3.78393 13.2381 3.14349C11.6919 2.50306 9.99062 2.33549 8.34924 2.66198C6.70786 2.98848 5.20016 3.79436 4.01679 4.97773C2.83343 6.16109 2.02754 7.66879 1.70105 9.31017C1.37456 10.9515 1.54213 12.6529 2.18256 14.199C2.823 15.7452 3.90753 17.0667 5.29902 17.9964C6.69052 18.9262 8.32647 19.4225 10 19.4225C12.2434 19.4199 14.3941 18.5276 15.9804 16.9413C17.5667 15.355 18.459 13.2043 18.4615 10.9609Z" fill="#292D32"/>
</svg>
