<svg width="24" height="25" viewBox="0 0 24 25" fill="none" xmlns="http://www.w3.org/2000/svg">
<path d="M10.1549 15.7337L10.1459 15.7127C10.0107 15.6758 9.87664 15.6348 9.74391 15.5897L9.73391 15.5857C8.35214 15.1136 7.15273 14.221 6.30378 13.0329C5.45483 11.8448 4.99891 10.4209 4.99991 8.96073C4.99946 7.16884 5.68621 5.44501 6.9187 4.1443C8.15118 2.84359 9.83555 2.06505 11.6249 1.96905C13.4142 1.87304 15.1722 2.46688 16.5368 3.62825C17.9014 4.78962 18.7686 6.43008 18.9599 8.21173C19.0039 8.62373 18.6639 8.96073 18.2499 8.96073C17.8359 8.96073 17.5049 8.62273 17.4499 8.21273C17.3169 7.245 16.9286 6.33014 16.3249 5.56218C15.7212 4.79422 14.924 4.20085 14.015 3.84306C13.1061 3.48527 12.1183 3.37597 11.1531 3.52638C10.1879 3.6768 9.28018 4.08151 8.52321 4.69892C7.76624 5.31633 7.18733 6.12417 6.84597 7.03941C6.50461 7.95465 6.41311 8.94428 6.58089 9.90659C6.74866 10.8689 7.16965 11.7692 7.80059 12.5149C8.43153 13.2606 9.24967 13.8249 10.1709 14.1497C10.3565 13.7303 10.6806 13.3873 11.089 13.1784C11.4973 12.9695 11.9651 12.9073 12.4138 13.0022C12.8626 13.0971 13.2651 13.3434 13.5538 13.6998C13.8426 14.0562 14.0001 14.501 13.9999 14.9597C13.9999 15.5577 13.7379 16.0937 13.3229 16.4597C12.9582 16.7831 12.4874 16.9614 11.9999 16.9607C11.6055 16.9617 11.2196 16.8457 10.8912 16.6273C10.5627 16.4088 10.3065 16.0979 10.1549 15.7337ZM7.99691 16.4607C7.26009 16.0665 6.58521 15.5662 5.99391 14.9757C5.44605 15.0395 4.94068 15.3022 4.57381 15.7141C4.20694 16.1259 4.00413 16.6582 4.00391 17.2097V17.7877C4.00391 18.6797 4.32191 19.5437 4.90191 20.2227C6.46791 22.0567 8.85391 22.9627 11.9999 22.9627C15.1459 22.9627 17.5329 22.0567 19.1019 20.2227C19.6833 19.5435 20.0028 18.6788 20.0029 17.7847V17.2097C20.003 16.9144 19.945 16.6219 19.8321 16.349C19.7192 16.0761 19.5536 15.8281 19.3449 15.6192C19.1362 15.4102 18.8883 15.2445 18.6155 15.1313C18.3427 15.0182 18.0502 14.9599 17.7549 14.9597H15.4999C15.4999 15.4977 15.3799 16.0057 15.1629 16.4597H17.7539C17.9528 16.4597 18.1436 16.5387 18.2842 16.6794C18.4249 16.8201 18.5039 17.0108 18.5039 17.2097V17.7847C18.5038 18.3213 18.3119 18.8402 17.9629 19.2477C16.7059 20.7157 14.7389 21.4617 11.9999 21.4617C9.26191 21.4617 7.29591 20.7157 6.04291 19.2487C5.69448 18.8413 5.50298 18.3228 5.50291 17.7867V17.2097C5.50291 17.0108 5.58192 16.8201 5.72258 16.6794C5.86323 16.5387 6.05399 16.4597 6.25291 16.4597H7.99691V16.4607ZM7.99991 8.96073C8.00009 8.27078 8.17873 7.59261 8.51848 6.99211C8.85822 6.39161 9.34752 5.88919 9.93882 5.53368C10.5301 5.17817 11.2033 4.98165 11.893 4.96322C12.5827 4.94479 13.2655 5.10507 13.8749 5.42849C14.4844 5.75191 14.9998 6.22747 15.3712 6.80897C15.7425 7.39047 15.9571 8.05813 15.9941 8.74708C16.0312 9.43604 15.8894 10.1229 15.5825 10.7408C15.2757 11.3588 14.8142 11.8868 14.2429 12.2737C13.6141 11.7474 12.8199 11.4595 11.9999 11.4607C12.6629 11.4607 13.2988 11.1973 13.7677 10.7285C14.2365 10.2597 14.4999 9.62377 14.4999 8.96073C14.4999 8.29769 14.2365 7.66181 13.7677 7.19297C13.2988 6.72412 12.6629 6.46073 11.9999 6.46073C11.3369 6.46073 10.701 6.72412 10.2321 7.19297C9.7633 7.66181 9.49991 8.29769 9.49991 8.96073C9.49991 9.62377 9.7633 10.2597 10.2321 10.7285C10.701 11.1973 11.3369 11.4607 11.9999 11.4607C11.1459 11.4607 10.3639 11.7667 9.75791 12.2737C9.21555 11.9081 8.77149 11.4147 8.46491 10.8369C8.15832 10.2591 7.99862 9.61481 7.99991 8.96073Z" fill="#292D32"/>
</svg>
