<svg width="21" height="18" viewBox="0 0 21 18" fill="none" xmlns="http://www.w3.org/2000/svg">
<path d="M9.70293 16.961C9.8336 16.961 9.9676 16.9317 10.1049 16.873C10.2423 16.8137 10.3533 16.7417 10.4379 16.657L18.2339 8.861C18.4853 8.60967 18.6789 8.353 18.8149 8.091C18.9516 7.82767 19.0199 7.539 19.0199 7.225C19.0199 6.907 18.9516 6.59833 18.8149 6.299C18.6789 5.999 18.4853 5.72567 18.2339 5.479L14.4839 1.729C14.2366 1.47767 13.9823 1.29333 13.7209 1.176C13.4603 1.05867 13.1709 1 12.8529 1C12.5389 1 12.2473 1.05867 11.9779 1.176C11.7086 1.29333 11.4546 1.47767 11.2159 1.729L10.3459 2.599L12.1959 4.456C12.3939 4.65067 12.5416 4.87233 12.6389 5.121C12.7363 5.36967 12.7853 5.62233 12.7859 5.879C12.7859 6.399 12.6159 6.82933 12.2759 7.17C11.9346 7.51 11.5039 7.68 10.9839 7.68C10.7273 7.68 10.4769 7.641 10.2329 7.563C9.98826 7.485 9.7686 7.34833 9.57393 7.153L7.66093 5.247L3.34293 9.564C3.2416 9.66533 3.1656 9.78033 3.11493 9.909C3.06426 10.0383 3.03893 10.1683 3.03893 10.299C3.03893 10.535 3.1146 10.7297 3.26593 10.883C3.41726 11.0363 3.61093 11.113 3.84693 11.113C3.9776 11.113 4.1116 11.083 4.24893 11.023C4.38626 10.9643 4.49726 10.8927 4.58193 10.808L7.75093 7.639L8.45893 8.347L5.29493 11.517C5.1936 11.6177 5.1176 11.7323 5.06693 11.861C5.01626 11.9903 4.99093 12.1203 4.99093 12.251C4.99093 12.4737 5.06993 12.6637 5.22793 12.821C5.38526 12.979 5.5756 13.058 5.79893 13.058C5.9296 13.058 6.0636 13.0287 6.20093 12.97C6.33826 12.9113 6.44926 12.8397 6.53393 12.755L9.93393 9.36L10.6409 10.068L7.24693 13.468C7.15826 13.5527 7.0856 13.6637 7.02893 13.801C6.9716 13.9383 6.94293 14.0723 6.94293 14.203C6.94293 14.4257 7.02193 14.6157 7.17993 14.773C7.33726 14.931 7.5276 15.01 7.75093 15.01C7.8816 15.01 8.0116 14.9847 8.14093 14.934C8.2696 14.8833 8.38459 14.8077 8.48593 14.707L11.8859 11.312L12.5929 12.02L9.19293 15.42C9.0916 15.5213 9.0156 15.6427 8.96493 15.784C8.91426 15.926 8.88893 16.056 8.88893 16.174C8.88893 16.41 8.97226 16.6003 9.13893 16.745C9.30493 16.8897 9.49293 16.962 9.70293 16.962V16.961ZM9.69693 17.961C9.18293 17.961 8.74293 17.773 8.37693 17.397C8.01026 17.0203 7.8496 16.556 7.89493 16.004C7.32826 16.0107 6.8566 15.8413 6.47993 15.496C6.1026 15.1513 5.9236 14.67 5.94293 14.052C5.32493 14.0587 4.83826 13.882 4.48293 13.522C4.12693 13.162 3.96493 12.688 3.99693 12.1C3.44093 12.1067 2.9756 11.95 2.60093 11.63C2.22626 11.3113 2.03893 10.8673 2.03893 10.298C2.03893 10.0413 2.08893 9.78467 2.18893 9.528C2.28826 9.27067 2.43493 9.04467 2.62893 8.85L7.66093 3.825L10.2429 6.407C10.3276 6.49567 10.4323 6.56867 10.5569 6.626C10.6809 6.68267 10.8209 6.711 10.9769 6.711C11.1916 6.711 11.3809 6.63633 11.5449 6.487C11.7089 6.33767 11.7909 6.14333 11.7909 5.904C11.7909 5.74733 11.7626 5.60667 11.7059 5.482C11.6486 5.358 11.5759 5.25367 11.4879 5.169L8.04793 1.729C7.79993 1.47767 7.54226 1.29333 7.27493 1.176C7.00826 1.05867 6.7156 1 6.39693 1C6.08293 1 5.7976 1.05867 5.54093 1.176C5.28493 1.29333 5.03126 1.47767 4.77993 1.729L1.73593 4.779C1.52126 4.99233 1.34793 5.24733 1.21593 5.544C1.08393 5.84067 1.01393 6.14633 1.00593 6.461C0.999262 6.687 1.0186 6.904 1.06393 7.112C1.1106 7.32067 1.18393 7.51667 1.28393 7.7L0.525929 8.457C0.357929 8.18967 0.226596 7.88133 0.131929 7.532C0.0365957 7.182 -0.00707097 6.82533 0.000929032 6.462C0.00892903 6.008 0.099929 5.573 0.273929 5.157C0.448596 4.74033 0.697929 4.37 1.02193 4.046L4.04693 1.021C4.3956 0.676333 4.7646 0.419667 5.15393 0.251C5.54326 0.0836668 5.96393 0 6.41593 0C6.86926 0 7.28693 0.0840001 7.66893 0.252C8.0516 0.42 8.4156 0.676333 8.76093 1.021L9.63093 1.892L10.5029 1.021C10.8516 0.676333 11.2173 0.419667 11.5999 0.251C11.9826 0.0836668 12.4003 0 12.8529 0C13.3056 0 13.7263 0.0840001 14.1149 0.252C14.5043 0.42 14.8713 0.676333 15.2159 1.021L18.9409 4.746C19.2863 5.09067 19.5523 5.47767 19.7389 5.907C19.9263 6.337 20.0199 6.77833 20.0199 7.231C20.0199 7.683 19.9266 8.10033 19.7399 8.483C19.5526 8.86567 19.2863 9.22967 18.9409 9.575L11.1449 17.365C10.9376 17.573 10.7116 17.7243 10.4669 17.819C10.2229 17.9137 9.96626 17.961 9.69693 17.961Z" fill="#292D32"/>
</svg>
