<svg width="20" height="20" viewBox="0 0 20 20" fill="none" xmlns="http://www.w3.org/2000/svg">
<path d="M10.8342 9.9165H5.83423C5.49256 9.9165 5.20923 9.63317 5.20923 9.2915C5.20923 8.94984 5.49256 8.6665 5.83423 8.6665H10.8342C11.1759 8.6665 11.4592 8.94984 11.4592 9.2915C11.4592 9.63317 11.1759 9.9165 10.8342 9.9165Z" fill="#292D32"/>
<path d="M1.66577 9.9167C1.3241 9.9167 1.04077 9.63337 1.04077 9.2917V5.4417C1.04077 3.40003 2.69911 1.7417 4.74077 1.7417H9.4241C11.5658 1.7417 13.1241 3.1667 13.1241 5.12503C13.1241 5.4667 12.8408 5.75003 12.4991 5.75003C12.1574 5.75003 11.8741 5.4667 11.8741 5.12503C11.8741 3.65836 10.5991 2.9917 9.4241 2.9917H4.74077C3.39077 2.9917 2.29077 4.0917 2.29077 5.4417V9.2917C2.29077 9.6417 2.00744 9.9167 1.66577 9.9167Z" fill="#292D32"/>
<path d="M13.3324 18.25H4.9991C2.81577 18.25 1.04077 16.475 1.04077 14.2917V8.45833C1.04077 6.275 2.81577 4.5 4.9991 4.5H13.3324C15.5158 4.5 17.2908 6.275 17.2908 8.45833V9.66663C17.2908 10.0083 17.0074 10.2916 16.6658 10.2916H15.7658C15.4741 10.2916 15.2075 10.4 15.0158 10.6L15.0074 10.6083C14.7324 10.8833 14.6241 11.2666 14.7241 11.6416C14.8491 12.1083 15.3408 12.45 15.8908 12.45H16.6658C17.0074 12.45 17.2908 12.7333 17.2908 13.075V14.2833C17.2908 16.475 15.5158 18.25 13.3324 18.25ZM4.9991 5.75C3.50744 5.75 2.29077 6.96667 2.29077 8.45833V14.2917C2.29077 15.7833 3.50744 17 4.9991 17H13.3324C14.8241 17 16.0408 15.7833 16.0408 14.2917V13.7083H15.8908C14.7658 13.7083 13.7907 13 13.5157 11.975C13.2991 11.1666 13.5324 10.3083 14.1241 9.72497C14.5574 9.2833 15.1408 9.04163 15.7658 9.04163H16.0408V8.45833C16.0408 6.96667 14.8241 5.75 13.3324 5.75H4.9991Z" fill="#292D32"/>
<path d="M17.4758 13.7082H15.8675C14.6091 13.7082 13.5425 12.7749 13.4425 11.5749C13.3758 10.8832 13.6258 10.2082 14.1258 9.7165C14.5425 9.28317 15.1341 9.0415 15.7591 9.0415H17.4675C18.2842 9.0415 18.9508 9.69985 18.9508 10.5165V12.2332C18.9591 13.0499 18.2925 13.7082 17.4758 13.7082ZM15.7675 10.2915C15.4758 10.2915 15.2092 10.3998 15.0175 10.5998C14.7758 10.8332 14.6592 11.1499 14.6925 11.4665C14.7342 12.0165 15.2675 12.4582 15.8675 12.4582H17.4758C17.6008 12.4582 17.7092 12.3582 17.7092 12.2332V10.5165C17.7092 10.3915 17.6008 10.2915 17.4758 10.2915H15.7675Z" fill="#292D32"/>
</svg>
