<svg width="74" height="24" viewBox="0 0 74 24" fill="none" xmlns="http://www.w3.org/2000/svg">
<path d="M70.8855 14.6568L72.9182 16.0119C72.2584 16.9837 70.6804 18.6508 67.9524 18.6508C64.5645 18.6508 62.0415 16.0297 62.0415 12.6954C62.0415 9.14712 64.5913 6.73999 67.6671 6.73999C70.7607 6.73999 72.2763 9.20061 72.7666 10.529L73.0341 11.2066L65.0638 14.5052C65.67 15.6999 66.6151 16.3061 67.9524 16.3061C69.2896 16.3061 70.2168 15.6464 70.8855 14.6568ZM64.6359 12.5082L69.9583 10.2972C69.6641 9.55723 68.7904 9.03122 67.7473 9.03122C66.4189 9.03122 64.5735 10.208 64.6359 12.5082Z" fill="#FF302F"/>
<path d="M58.1992 0.66864H60.7668V18.107H58.1992V0.66864Z" fill="#20B15A"/>
<path d="M54.1516 7.20359H56.6301V17.795C56.6301 22.1902 54.0357 24 50.9689 24C48.0803 24 46.3418 22.0565 45.691 20.4785L47.9644 19.5335C48.3745 20.5052 49.3641 21.6553 50.9689 21.6553C52.9392 21.6553 54.1516 20.4339 54.1516 18.1516V17.2957H54.0625C53.4741 18.0089 52.3507 18.6508 50.9243 18.6508C47.9466 18.6508 45.2185 16.0565 45.2185 12.7132C45.2185 9.35218 47.9466 6.73108 50.9243 6.73108C52.3418 6.73108 53.4741 7.36407 54.0625 8.05946H54.1516V7.20359ZM54.3299 12.7132C54.3299 10.6092 52.9302 9.0758 51.1472 9.0758C49.3463 9.0758 47.8307 10.6092 47.8307 12.7132C47.8307 14.7905 49.3463 16.2972 51.1472 16.2972C52.9302 16.3061 54.3299 14.7905 54.3299 12.7132Z" fill="#3686F7"/>
<path d="M31.1233 12.6686C31.1233 16.101 28.4487 18.624 25.1678 18.624C21.887 18.624 19.2124 16.0921 19.2124 12.6686C19.2124 9.2184 21.887 6.70428 25.1678 6.70428C28.4487 6.70428 31.1233 9.2184 31.1233 12.6686ZM28.52 12.6686C28.52 10.529 26.9687 9.05792 25.1678 9.05792C23.3669 9.05792 21.8157 10.529 21.8157 12.6686C21.8157 14.7905 23.3669 16.2793 25.1678 16.2793C26.9687 16.2793 28.52 14.7905 28.52 12.6686Z" fill="#FF302F"/>
<path d="M44.1308 12.6954C44.1308 16.1278 41.4562 18.6508 38.1754 18.6508C34.8946 18.6508 32.22 16.1278 32.22 12.6954C32.22 9.24519 34.8946 6.73999 38.1754 6.73999C41.4562 6.73999 44.1308 9.23628 44.1308 12.6954ZM41.5186 12.6954C41.5186 10.5557 39.9674 9.08471 38.1665 9.08471C36.3656 9.08471 34.8143 10.5557 34.8143 12.6954C34.8143 14.8173 36.3656 16.3061 38.1665 16.3061C39.9763 16.3061 41.5186 14.8083 41.5186 12.6954Z" fill="#FFBA40"/>
<path d="M9.42348 16.0386C5.68796 16.0386 2.76374 13.0253 2.76374 9.28975C2.76374 5.55423 5.68796 2.54086 9.42348 2.54086C11.4383 2.54086 12.9094 3.33432 13.997 4.35067L15.789 2.55869C14.2734 1.1055 12.2496 0 9.42348 0C4.30609 0 0 4.17236 0 9.28975C0 14.4071 4.30609 18.5795 9.42348 18.5795C12.1872 18.5795 14.2734 17.6701 15.9049 15.9762C17.581 14.3001 18.0981 11.9465 18.0981 10.0386C18.0981 9.44131 18.0267 8.82615 17.9465 8.37147H9.42348V10.8499H15.4948C15.3165 12.4012 14.8262 13.4621 14.104 14.1842C13.2303 15.0669 11.8484 16.0386 9.42348 16.0386Z" fill="#3686F7"/>
</svg>
