<svg width="28" height="28" viewBox="0 0 28 28" fill="none" xmlns="http://www.w3.org/2000/svg">
<path d="M13.9999 0C15.0305 0.0546992 15.688 0.656391 16.3378 1.30731C19.8017 4.78144 23.2738 8.24755 26.7541 11.7056C27.3316 12.2789 27.8564 12.8625 28 13.6967C28 13.6967 27.9644 14.4154 27.9573 14.4494C27.6833 15.7769 26.7004 16.5859 25.3509 16.5941H24.9964C24.9964 16.7478 24.9964 22.2243 24.9964 24.8537C24.9964 26.7058 23.7033 27.9967 21.8536 27.9995C20.4685 27.9995 19.0832 27.9995 17.6977 27.9995C16.9904 27.9995 16.6901 27.6964 16.6901 26.982C16.6901 24.8893 16.6901 22.7966 16.6901 20.7042C16.6901 19.7918 16.1209 19.2273 15.2031 19.2246C14.4191 19.2213 13.6356 19.2246 12.8515 19.2246C12.4434 19.2252 12.0522 19.3873 11.7637 19.6755C11.4752 19.9636 11.3129 20.3542 11.3125 20.7616C11.3125 22.8544 11.3125 24.9471 11.3125 27.0395C11.3125 27.6789 10.9914 27.9995 10.3569 28C8.94441 28 5.59014 27.9737 5.33426 27.913C3.92944 27.5788 3.0095 26.4022 3.00622 24.9319C2.99964 22.2659 3.00622 16.7227 3.00622 16.6302C2.95417 16.6105 2.64789 16.5985 2.5131 16.5914C1.56797 16.546 0.840348 16.1226 0.357095 15.312C-0.259846 14.276 -0.0647916 13.0288 0.844731 12.1203C4.44301 8.52324 8.04256 4.9253 11.6434 1.32646C12.2992 0.668972 12.9589 0.0546992 13.9999 0Z" fill="#707070"/>
</svg>
