<svg width="41" height="40" viewBox="0 0 41 40" fill="none" xmlns="http://www.w3.org/2000/svg">
<path fill-rule="evenodd" clip-rule="evenodd" d="M10.4507 5H30.4507C33.2121 5 35.4507 7.23858 35.4507 10V30C35.4507 32.7614 33.2121 35 30.4507 35H10.4507C7.68926 35 5.45068 32.7614 5.45068 30V10C5.45068 7.23858 7.68926 5 10.4507 5ZM10.4507 7.21667L10.2105 7.22688C8.78577 7.34865 7.66735 8.54371 7.66735 10V30C7.66735 31.5372 8.91349 32.7833 10.4507 32.7833H11.5618L23.2271 17.4595C23.3753 17.2648 23.5393 17.0828 23.7174 16.9152C25.5039 15.2341 28.3149 15.3195 29.996 17.106L33.234 20.5471V10C33.234 8.46281 31.9879 7.21667 30.4507 7.21667H10.4507ZM33.234 23.7817L28.3817 18.6251C27.5395 17.7302 26.1314 17.6874 25.2365 18.5295C25.1473 18.6135 25.0651 18.7047 24.9909 18.8021L14.3477 32.7833H30.4507C31.9879 32.7833 33.234 31.5372 33.234 30V23.7817ZM14.6174 16.6667C15.9981 16.6667 17.1173 15.5474 17.1173 14.1667C17.1173 12.786 15.9981 11.6667 14.6174 11.6667C13.2366 11.6667 12.1174 12.786 12.1174 14.1667C12.1174 15.5474 13.2366 16.6667 14.6174 16.6667ZM15.4507 14.1667C15.4507 14.6269 15.0776 15 14.6173 15C14.1571 15 13.784 14.6269 13.784 14.1667C13.784 13.7064 14.1571 13.3333 14.6173 13.3333C15.0776 13.3333 15.4507 13.7064 15.4507 14.1667Z" fill="black" fill-opacity="0.3"/>
</svg>
