<svg width="20" height="20" viewBox="0 0 20 20" fill="none" xmlns="http://www.w3.org/2000/svg">
<g clip-path="url(#clip0_225_1602)">
<path d="M9.78047 18.6024V18.2974C9.78047 15.8703 9.78047 13.4432 9.78047 11.016C9.78047 9.31553 9.79899 7.61502 9.79226 5.91494C9.78847 4.90862 9.31957 4.16136 8.42388 3.71022C7.12284 3.05478 5.80876 2.42083 4.50393 1.77888C4.09102 1.57627 3.66506 1.41788 3.19911 1.4023C2.40822 1.37618 1.83157 1.74434 1.58534 2.4975C1.47337 2.82985 1.44012 3.19126 1.40603 3.54299C1.37825 3.83069 1.40855 4.12387 1.39635 4.41409C1.38709 4.58659 1.31398 4.74945 1.19126 4.87094C1.06855 4.99242 0.905025 5.06382 0.732571 5.07121C0.384478 5.08722 0.03428 4.82353 0.0170227 4.4718C-0.0183338 3.6226 -0.0305402 2.77214 0.285564 1.95622C0.881574 0.418726 2.36865 -0.324324 4.0464 0.133974C4.58643 0.281826 5.10289 0.531615 5.61177 0.773823C6.7638 1.32142 7.91247 1.87997 9.04682 2.46338C10.4333 3.17652 11.1463 4.33448 11.1876 5.89472C11.2036 6.51182 11.1939 7.13019 11.1876 7.74813C11.1876 7.90104 11.2175 7.97012 11.3888 8.00761C13.3852 8.44779 15.3815 8.88798 17.3716 9.35554C18.45 9.60828 19.3149 10.1807 19.7102 11.2646C19.8754 11.7127 19.9667 12.1847 19.9804 12.6622C20.0065 14.0641 20.0153 15.4684 19.9539 16.8686C19.8697 18.794 18.6415 19.9575 16.7082 19.9857C14.8937 20.0118 13.0783 19.9983 11.2633 19.9992C8.4177 20.0009 5.57206 20.0009 2.72643 19.9992C1.4216 19.9992 0.366379 19.1871 0.0784757 17.9667C0.0331571 17.7754 0.00985553 17.5795 0.00902538 17.3829C0.00481628 14.3313 0.00397445 11.279 0.00649992 8.22622C0.00649992 7.81258 0.252312 7.51013 0.610507 7.47096C0.968702 7.43179 1.29575 7.6483 1.37867 8.00002C1.39699 8.09987 1.40391 8.20148 1.39929 8.30289C1.39929 11.2751 1.39929 14.2473 1.39929 17.2195C1.39929 18.0969 1.89849 18.6015 2.77231 18.602C5.03063 18.6036 7.28868 18.6036 9.54644 18.602L9.78047 18.6024ZM18.5624 14.9958C17.9912 15.3008 17.3817 15.4213 16.7381 15.3122C16.0946 15.2031 15.5558 14.8909 15.1214 14.42C13.8902 15.5653 12.5909 15.6593 11.2116 14.7149V18.5902C11.2861 18.5944 11.35 18.6003 11.4136 18.6003C13.0473 18.6003 14.6807 18.6003 16.3139 18.6003C16.4738 18.6003 16.6337 18.5969 16.7928 18.5851C17.891 18.503 18.4858 17.9621 18.5548 16.9179C18.596 16.2907 18.5624 15.6571 18.5624 14.9958ZM11.6455 9.5114C11.6368 9.56638 11.6309 9.62178 11.6278 9.67736C11.6278 10.6424 11.6199 11.6079 11.6308 12.5729C11.6315 12.9404 11.7779 13.2926 12.0378 13.5521C12.2978 13.8116 12.6501 13.9573 13.0173 13.9571C13.7787 13.9571 14.3886 13.353 14.3979 12.5721C14.4067 11.8176 14.3979 11.0624 14.4038 10.3079C14.4038 10.1601 14.3503 10.11 14.2106 10.0826C13.8498 10.0114 13.4929 9.91999 13.1334 9.83954C12.6418 9.73044 12.1494 9.6226 11.6455 9.5114ZM15.8172 10.4082C15.8172 11.1845 15.8172 11.8825 15.8172 12.5792C15.8166 12.909 15.9352 13.2278 16.1511 13.477C16.367 13.7261 16.6656 13.8887 16.9919 13.9347C17.3179 13.9849 17.6511 13.9168 17.9313 13.7428C18.2115 13.5688 18.4204 13.3003 18.5203 12.9857C18.7593 12.2321 18.338 11.2342 17.5804 10.9276C17.0235 10.7022 16.425 10.583 15.8172 10.4082Z" fill="#FF0A25"/>
<path d="M5.58 11.6259C5.06481 11.6259 4.54961 11.6289 4.03442 11.6259C3.6013 11.623 3.29362 11.3382 3.2852 10.944C3.27678 10.5497 3.59457 10.2359 4.03316 10.2325C5.07842 10.2272 6.12354 10.2272 7.16852 10.2325C7.60037 10.235 7.90006 10.5316 7.90048 10.9309C7.90091 11.3302 7.60585 11.6209 7.16936 11.6247C6.63986 11.6293 6.10993 11.6259 5.58 11.6259Z" fill="#FF0A25"/>
<path d="M5.58675 7.90854C5.07113 7.90854 4.55594 7.90854 4.04074 7.90854C3.60173 7.90854 3.2831 7.60736 3.28563 7.20719C3.28815 6.80703 3.60257 6.51511 4.0479 6.51469C5.07885 6.51301 6.10966 6.51301 7.14033 6.51469C7.5886 6.51469 7.89797 6.79818 7.9005 7.20467C7.90386 7.62168 7.59365 7.90812 7.13275 7.90938C6.61756 7.9098 6.10321 7.90854 5.58675 7.90854Z" fill="#FF0A25"/>
</g>
<defs>
<clipPath id="clip0_225_1602">
<rect width="20" height="20" fill="white"/>
</clipPath>
</defs>
</svg>
