<svg width="19" height="18" viewBox="0 0 19 18" fill="none" xmlns="http://www.w3.org/2000/svg">
<path d="M12.8711 5.6721H12.3615H12.2854L12.8404 2.41651L13.4104 2.50952L12.8711 5.6721ZM12.7505 1.30789C12.726 1.2795 12.6995 1.2531 12.6713 1.22884L12.6717 0.594745C12.6946 0.603656 12.7172 0.613188 12.7396 0.623334C12.917 0.703725 13.0735 0.820501 13.1986 0.964833L13.5764 0.637359L13.1986 0.964834C13.3236 1.10913 13.4144 1.27755 13.4654 1.45815C13.47 1.47448 13.4743 1.49089 13.4782 1.50736L12.8186 1.39973C12.7983 1.36749 12.7755 1.33678 12.7505 1.30789ZM10.3173 0.899486C10.6701 0.714901 11.0524 0.592526 11.447 0.536397V1.08646C11.1518 1.13738 10.8651 1.23355 10.5978 1.37335C10.3287 1.5141 10.085 1.69606 9.87542 1.91117L9.39773 1.59921C9.66008 1.31794 9.9707 1.08088 10.3173 0.899486ZM5.42355 6.6019C5.54519 6.56759 5.66336 6.52071 5.77602 6.46172C5.89057 6.40174 5.99821 6.33006 6.09709 6.24781L6.58239 6.5641C6.2619 6.86398 5.86063 7.07193 5.42355 7.16262V6.6019ZM4.42355 6.6721V7.21487H2.07806V6.94349V6.6721H4.42355ZM0.78903 8.21487H1.07806V14.6716H0.5V8.21487H0.78903ZM0.555835 15.6716H1.14994C1.32419 16.2615 1.7989 16.7206 2.39311 16.8883V17.4486C1.9423 17.3549 1.52592 17.1357 1.19691 16.8141C0.872776 16.4972 0.652624 16.0998 0.555835 15.6716ZM3.39311 17.5V16.9572H14.3443V17.5H3.39311ZM15.3443 17.4485V16.8881C15.579 16.8219 15.7994 16.7092 15.9914 16.5555C16.1841 16.4011 16.3416 16.2103 16.4553 15.9956L17.035 16.109C16.8853 16.4395 16.6574 16.7346 16.366 16.9681C16.0682 17.2066 15.7173 17.3707 15.3443 17.4485ZM13.715 6.6721H15.6067V7.21384V7.21487H13.6225L13.6329 7.15404L13.715 6.6721ZM17.9163 8.84386C17.8524 8.10618 17.3229 7.48375 16.6067 7.28237V6.72347C16.7885 6.76124 16.9655 6.81957 17.1342 6.8976C17.455 7.04594 17.7371 7.26154 17.9607 7.52812C18.1844 7.79466 18.3441 8.10559 18.4292 8.43828C18.4728 8.60881 18.4963 8.78332 18.4996 8.95822L17.9163 8.84386ZM18.3532 9.94952L17.2914 15.1399L16.7262 15.029L17.788 9.83864L18.3532 9.94952ZM6.71838 5.45909L8.8008 2.40492L9.27579 2.7145L7.19338 5.76867L6.71838 5.45909Z" fill="#AEAEAE" stroke="#AEAEAE"/>
<path d="M4.99707 6.94336V17.2285V6.94336Z" fill="#AEAEAE"/>
<path d="M4.99707 6.94336V17.2285" stroke="#AEAEAE" stroke-width="1.5"/>
</svg>
