<svg width="20" height="21" viewBox="0 0 20 21" fill="none" xmlns="http://www.w3.org/2000/svg">
<path d="M16.9883 11.2864V11.5905L17.2097 11.799L19.2921 13.7593L19.7747 13.2467L19.2921 13.7593C19.294 13.7611 19.2952 13.7625 19.296 13.7635V15.9263C19.2952 15.9273 19.294 15.9287 19.2921 15.9305C19.2827 15.9393 19.2613 15.9512 19.2308 15.9512H13.8462H13.1421V16.6552L13.1421 17.3785C13.1421 17.3787 13.1421 17.3789 13.1421 17.3792C13.1415 17.78 13.052 18.1776 12.8776 18.5469C12.703 18.9166 12.4466 19.2511 12.1223 19.5273C11.7979 19.8035 11.4132 20.0149 10.9919 20.1456C10.5734 20.2753 10.1299 20.322 9.69008 20.2822C8.88619 20.1836 8.15723 19.8111 7.63815 19.2466C7.11818 18.6811 6.84446 17.9628 6.85776 17.2305L6.85787 17.2305V17.2177V16.6552V15.9512H6.15385H0.769231C0.738673 15.9512 0.717287 15.9393 0.707874 15.9305C0.706006 15.9287 0.704787 15.9273 0.704026 15.9263V13.7635C0.704786 13.7625 0.706005 13.7611 0.707872 13.7593L0.707878 13.7593L2.79026 11.799L3.01172 11.5905V11.2864V8.6903C3.01402 7.08316 3.64886 5.52633 4.80574 4.3224C5.96381 3.11724 7.56317 2.35203 9.29789 2.18588L9.9348 2.12488V1.48506V0.704026H10.0652V1.48506V2.12488L10.7021 2.18588C12.4368 2.35203 14.0362 3.11724 15.1943 4.3224C16.3512 5.52642 16.9861 7.08338 16.9883 8.69063V11.2864ZM7.88564 19.4281L8.335 18.9507L7.88565 19.4281C8.45326 19.9624 9.2145 20.2558 10 20.2558C10.7855 20.2558 11.5467 19.9624 12.1144 19.4281L11.6318 18.9155L12.1144 19.4281C12.6834 18.8924 13.0117 18.1564 13.0117 17.3793V16.6552V15.9512H12.3077H7.69231H6.98828V16.6552V17.3793C6.98828 18.1564 7.31659 18.8924 7.88564 19.4281ZM18.4615 15.9109H19.1656V15.2069V14.0585V13.7544L18.9441 13.5459L16.8618 11.5856L16.8617 11.5855C16.8599 11.5837 16.8586 11.5823 16.8579 11.5813V8.68967C16.8579 6.95232 16.1243 5.29541 14.834 4.0807C13.5451 2.86734 11.8056 2.19253 10 2.19253C8.19444 2.19253 6.45491 2.86734 5.166 4.0807C3.87565 5.29541 3.14213 6.95232 3.14213 8.68967V11.5813C3.14137 11.5823 3.14015 11.5837 3.13828 11.5855L3.13819 11.5856L1.05588 13.5459L0.834435 13.7544V14.0585V15.2069V15.9109H1.53846H18.4615Z" fill="black" stroke="url(#paint0_linear_234_1175)" stroke-width="1.40805"/>
<defs>
<linearGradient id="paint0_linear_234_1175" x1="10" y1="0" x2="10" y2="21" gradientUnits="userSpaceOnUse">
<stop stop-color="#FF0A25"/>
<stop offset="1" stop-color="#FD4D3D"/>
</linearGradient>
</defs>
</svg>
