<svg width="23" height="23" viewBox="0 0 23 23" fill="none" xmlns="http://www.w3.org/2000/svg">
<path d="M20.3561 10.7409L20.4955 11.2211L20.9757 11.0817L20.8363 10.6015C20.9757 11.0817 20.9759 11.0817 20.9762 11.0816L20.9767 11.0814L20.9778 11.0811L20.9805 11.0803L20.9875 11.0782L21.0077 11.0718C21.0237 11.0665 21.045 11.0593 21.0706 11.0498C21.1217 11.0309 21.191 11.003 21.2713 10.9644C21.4297 10.8884 21.6427 10.7654 21.8437 10.5796C22.0463 10.3922 22.2442 10.1339 22.3522 9.79139C22.4613 9.44531 22.4678 9.04764 22.3389 8.60348C22.2099 8.15932 21.9916 7.82691 21.7141 7.59305C21.4395 7.36162 21.134 7.24935 20.8626 7.19964C20.5933 7.15032 20.3476 7.16049 20.1731 7.18107C20.0846 7.1915 20.0111 7.205 19.9579 7.21642C19.9312 7.22214 19.9093 7.22739 19.893 7.23156L19.8725 7.23694L19.8655 7.23889L19.8628 7.23966L19.8616 7.23999L19.8611 7.24014C19.8609 7.24021 19.8606 7.24028 20 7.72046L19.8606 7.24028L19.3804 7.37966L19.5198 7.85984L20.3561 10.7409Z" stroke="url(#paint0_linear_234_1212)"/>
<path d="M20.9348 15.2525L17.6383 2.97348C17.2799 1.63844 15.6391 1.14659 14.603 2.06359L12.5253 3.90242C10.2132 5.9487 7.45556 7.42961 4.47068 8.22786C1.97216 8.89605 0.491419 11.4667 1.16089 13.9604C1.83037 16.4541 4.40053 17.9414 6.89906 17.2732C9.8839 16.4749 13.014 16.3812 16.0415 16.9996L18.762 17.5552C20.1187 17.8323 21.2932 16.5875 20.9348 15.2525Z" stroke="url(#paint1_linear_234_1212)" stroke-width="1.5" stroke-linecap="round" stroke-linejoin="round"/>
<path d="M6.71747 7.59424L10.5 21.5942" stroke="url(#paint2_linear_234_1212)" stroke-width="1.5" stroke-linecap="round" stroke-linejoin="round"/>
<defs>
<linearGradient id="paint0_linear_234_1212" x1="20.7203" y1="7.51139" x2="21.5566" y2="10.3925" gradientUnits="userSpaceOnUse">
<stop stop-color="#FF0A25"/>
<stop offset="1" stop-color="#FD4D3D"/>
</linearGradient>
<linearGradient id="paint1_linear_234_1212" x1="11" y1="1.59424" x2="11" y2="17.5942" gradientUnits="userSpaceOnUse">
<stop stop-color="#FF0A25"/>
<stop offset="1" stop-color="#FD4D3D"/>
</linearGradient>
<linearGradient id="paint2_linear_234_1212" x1="8.60873" y1="7.59424" x2="8.60873" y2="21.5942" gradientUnits="userSpaceOnUse">
<stop stop-color="#FF0A25"/>
<stop offset="1" stop-color="#FD4D3D"/>
</linearGradient>
</defs>
</svg>
