<svg width="370" height="627" viewBox="0 0 370 627" fill="none" xmlns="http://www.w3.org/2000/svg">
<g clip-path="url(#clip0_358_170)">
<path opacity="0.5" d="M365.718 478.23C365.353 472.369 363.57 466.689 360.521 461.679C357.023 455.936 350.927 445.984 340.314 428.776C322.869 400.508 323.091 369.081 330.982 344.621C334.151 334.803 338.115 328.028 345.874 318.225C357.933 303.005 377.568 283.826 381.474 273.894C381.474 273.894 382.188 277.384 384.9 283.712C387.827 290.47 391.721 296.764 396.459 302.397C405.148 312.81 422.636 337.495 423.486 368.364C423.486 368.364 431.876 406.812 387.078 451.713C387.066 451.72 369.497 464.092 365.718 478.23Z" fill="url(#paint0_linear_358_170)"/>
<path opacity="0.5" d="M240.476 542.342C242.639 533.717 242.706 524.705 240.672 516.06C238.34 506.159 234.235 488.988 227.047 459.277C215.23 410.461 229.902 365.241 252.283 333.616C261.241 320.915 271.455 309.153 285.459 302.44C311.645 289.89 355.169 267.249 356.203 254.963C356.203 254.963 351.138 270.708 360.048 293.032C360.048 293.032 389.833 350.702 372.606 410.602C372.606 410.602 366.936 469.916 282.888 513.967C282.888 513.967 252.272 523.684 240.476 542.342Z" fill="url(#paint1_linear_358_170)"/>
<path opacity="0.5" d="M328.93 461.298C329.621 455.898 328.99 450.415 327.091 445.32C324.915 439.486 321.114 429.357 314.474 411.85C303.546 383.069 309.225 354.498 320.693 333.637C325.29 325.262 330.701 317.353 338.841 312.225C354.059 302.656 379.22 285.663 378.948 278.123C378.948 278.123 376.988 288.061 384.16 300.971C384.16 300.971 406.808 333.794 400.646 371.45C400.646 371.45 401.583 407.918 352.992 440.918C352.981 440.902 334.834 449.093 328.93 461.298Z" fill="url(#paint2_linear_358_170)"/>
<path opacity="0.5" d="M319.866 377.088C320.91 373.642 321.1 369.996 320.42 366.464C319.642 362.417 318.264 355.396 315.848 343.25C311.877 323.287 318.71 305.283 328.45 292.92C332.358 287.962 336.745 283.395 342.616 280.944C353.574 276.368 371.827 268.037 372.468 263.089C372.468 263.089 370.108 269.361 373.365 278.555C373.365 278.555 384.536 302.435 376.408 326.324C376.408 326.324 373.019 350.201 337.766 366.416C337.756 366.409 325.025 369.773 319.866 377.088Z" fill="url(#paint3_linear_358_170)"/>
<path opacity="0.5" d="M165.021 453.066C169.433 446.41 172.161 438.784 172.97 430.846C173.902 421.749 175.474 405.955 178.103 378.6C182.402 333.627 208.406 299.76 236.967 279.727C248.427 271.686 260.652 264.795 274.663 263.341C300.836 260.627 344.869 254.608 349.398 244.504C349.398 244.504 340.387 256.319 341.42 277.931C341.42 277.931 349.871 335.83 317.368 381.375C317.368 381.375 294.938 429.938 209.8 441.843C209.8 441.843 180.683 440.838 165.021 453.066Z" fill="url(#paint4_linear_358_170)"/>
<path opacity="0.5" d="M220.483 323.715C223.166 322.401 225.49 320.454 227.256 318.043C229.278 315.283 232.779 310.481 238.819 302.145C248.732 288.445 263.527 282.435 276.525 281.382C281.739 280.965 286.982 281.058 291.766 283.248C300.71 287.349 316.03 293.769 319.406 291.369C319.406 291.369 314.267 293.473 310.498 300.653C310.498 300.653 302.26 320.973 283.149 329.484C283.149 329.484 266.714 340.907 237.044 328.582C237.033 328.597 227.846 322.736 220.483 323.715Z" fill="url(#paint5_linear_358_170)"/>
<path opacity="0.5" d="M136.886 343.077C142.176 340.442 146.834 336.692 150.542 332.085C154.766 326.83 162.068 317.697 174.661 301.839C195.359 275.786 224.358 263.502 249.276 260.514C259.269 259.305 269.275 259.06 278.122 262.703C294.645 269.513 323.05 280.091 329.796 275.385C329.796 275.385 319.715 279.679 311.598 293.218C311.598 293.218 293.205 331.306 255.656 348.606C255.656 348.606 222.822 371.003 167.813 350.728C167.849 350.731 151.062 340.678 136.886 343.077Z" fill="url(#paint6_linear_358_170)"/>
<path opacity="0.5" d="M129.14 281.038C134.853 279.568 139.88 271.587 144.534 268.034C149.866 263.973 154.887 253.949 170.821 241.669C197.028 221.465 227.806 215.407 252.39 217.179C262.259 217.884 271.875 219.465 279.448 224.408C293.594 233.66 318.172 248.519 325.783 245.416C325.783 245.416 315.081 247.546 303.984 258.517C303.984 258.517 277.021 290.203 236.84 299.314C236.84 299.314 209.419 310.191 171.337 294.889C162.92 291.511 159.898 291.519 146.783 286.141C140.944 283.75 138.107 283.238 129.14 281.038Z" fill="url(#paint7_linear_358_170)"/>
<path opacity="0.5" d="M138.07 176.973C157.225 178.636 159.589 169.366 193.691 165.538C225.107 162.03 251.262 170.303 272.008 180.649C280.324 184.797 288.086 189.537 292.686 196.135C301.287 208.464 316.726 228.939 324.602 229.338C324.602 229.338 314.408 227.075 300.306 231.519C300.306 231.519 264 246.204 225.264 238.568C225.264 238.568 192.425 237.841 163.954 207.022C160.276 202.993 156.976 198.634 154.098 193.998C149.857 187.376 144.422 181.603 138.07 176.973Z" fill="url(#paint8_linear_358_170)"/>
<path opacity="0.5" d="M219.642 225.254C223.326 225.319 226.982 224.579 230.356 223.087C234.201 221.392 240.862 218.428 252.386 213.266C271.318 204.781 290.884 206.314 305.526 211.828C311.405 214.042 317.008 216.779 320.849 221.344C328.031 229.885 340.714 243.933 345.766 243.249C345.766 243.249 338.952 242.728 330.577 247.896C330.577 247.896 309.46 263.723 283.721 262.496C283.721 262.496 259.126 265.468 234.533 238.384C234.553 238.398 228.167 228.005 219.642 225.254Z" fill="url(#paint9_linear_358_170)"/>
<path opacity="0.5" d="M249.079 87.0047C252.482 90.6877 256.714 93.5048 261.425 95.2231C266.824 97.1901 276.199 100.571 292.432 106.399C319.136 115.944 335.95 136.823 343.963 157.124C347.178 165.266 349.584 173.7 348.421 182.358C346.249 198.547 343.477 225.999 348.96 230.286C348.96 230.286 343.09 223.037 329.795 220.321C329.795 220.321 293.358 216.468 270.393 189.883C270.393 189.883 248.3 172.201 248.656 128.273C248.759 122.404 249.352 116.553 250.43 110.78C251.485 104.803 252.509 94.5491 249.079 87.0047Z" fill="url(#paint10_linear_358_170)"/>
<path opacity="0.5" d="M230.07 169.831C233.465 171.255 237.119 171.957 240.802 171.893C244.998 171.797 252.249 171.656 264.805 171.338C285.463 170.837 303.033 179.456 314.586 189.781C319.222 193.921 323.405 198.422 325.295 203.895C328.828 214.124 335.419 231.269 340.371 232.562C340.371 232.562 334.252 229.575 324.591 231.049C324.591 231.049 299.221 237.247 275.816 226.621C275.816 226.621 251.939 220.13 239.072 187.003C239.077 187.007 236.968 175.429 230.07 169.831Z" fill="url(#paint11_linear_358_170)"/>
<path opacity="0.5" d="M318.502 116.864C319.954 119.935 322.117 122.614 324.813 124.676C327.892 127.039 333.257 131.128 342.562 138.171C357.873 149.734 364.497 166.627 365.547 181.391C365.954 187.292 365.82 193.239 363.313 198.597C358.639 208.615 351.298 225.794 353.967 229.677C353.967 229.677 351.654 223.799 343.636 219.336C343.636 219.336 320.9 209.457 311.484 187.624C311.484 187.624 300.819 171.7 309.921 143.404C311.166 139.643 312.723 135.991 314.575 132.487C316.464 128.847 319.194 122.439 318.502 116.864Z" fill="url(#paint12_linear_358_170)"/>
<path opacity="0.5" d="M333.567 112.114C334.84 115.251 336.771 118.077 339.23 120.401C342.035 123.043 346.915 127.615 355.386 135.507C369.312 148.483 375.055 165.587 375.698 179.957C375.957 185.723 375.676 191.445 373.227 196.332C368.654 205.473 361.444 221.225 363.835 225.287C363.835 225.287 361.818 219.335 354.473 214.101C354.473 214.101 333.617 201.912 325.405 179.722C325.405 179.722 315.891 163.082 324.99 136.801C326.224 133.336 327.756 129.986 329.57 126.786C331.392 123.458 334.074 117.581 333.567 112.114Z" fill="url(#paint13_linear_358_170)"/>
<path opacity="0.5" d="M395.288 38.3685C395.02 43.7966 395.917 49.216 397.918 54.262C400.207 60.0011 404.203 69.9612 411.166 87.1843C422.61 115.482 419.403 144.261 410.631 165.61C407.112 174.173 402.845 182.307 395.991 187.77C383.181 197.975 362.072 216.016 362.794 223.544C362.794 223.544 363.889 213.524 356.754 200.953C356.754 200.953 334.707 169.104 337.751 131.212C337.751 131.212 335.138 100.588 366.141 68.4754C370.274 64.2697 374.765 60.4317 379.562 57.005C384.468 53.4074 392.332 46.6637 395.288 38.3685Z" fill="url(#paint14_linear_358_170)"/>
<path opacity="0.5" d="M365.718 478.23C365.353 472.369 363.57 466.689 360.521 461.679C357.023 455.936 350.927 445.984 340.314 428.776C322.869 400.508 323.091 369.081 330.982 344.621C334.151 334.803 338.115 328.028 345.874 318.225C357.933 303.005 377.568 283.826 381.474 273.894C381.474 273.894 382.188 277.384 384.9 283.712C387.827 290.47 391.721 296.764 396.459 302.397C405.148 312.81 422.636 337.495 423.486 368.364C423.486 368.364 431.876 406.812 387.078 451.713C387.066 451.72 369.497 464.092 365.718 478.23Z" fill="url(#paint15_linear_358_170)"/>
<path d="M240.476 542.342C242.639 533.717 242.706 524.705 240.672 516.06C238.34 506.159 234.235 488.988 227.047 459.277C215.23 410.461 229.902 365.241 252.283 333.616C261.241 320.915 271.455 309.153 285.459 302.44C311.645 289.89 355.169 267.249 356.203 254.963C356.203 254.963 351.138 270.708 360.048 293.032C360.048 293.032 389.833 350.702 372.606 410.602C372.606 410.602 366.936 469.916 282.888 513.967C282.888 513.967 252.272 523.684 240.476 542.342Z" fill="url(#paint16_linear_358_170)"/>
<path opacity="0.5" d="M328.93 461.298C329.621 455.898 328.99 450.415 327.091 445.32C324.915 439.486 321.114 429.357 314.474 411.85C303.546 383.069 309.225 354.498 320.693 333.637C325.29 325.262 330.701 317.353 338.841 312.225C354.059 302.656 379.22 285.663 378.948 278.123C378.948 278.123 376.988 288.061 384.16 300.971C384.16 300.971 406.808 333.794 400.646 371.45C400.646 371.45 401.583 407.918 352.992 440.918C352.981 440.902 334.834 449.093 328.93 461.298Z" fill="url(#paint17_linear_358_170)"/>
<path opacity="0.5" d="M319.866 377.088C320.91 373.642 321.1 369.996 320.42 366.464C319.642 362.417 318.264 355.396 315.848 343.25C311.877 323.287 318.71 305.283 328.45 292.92C332.358 287.962 336.745 283.395 342.616 280.944C353.574 276.368 371.827 268.037 372.468 263.089C372.468 263.089 370.108 269.361 373.365 278.555C373.365 278.555 384.536 302.435 376.408 326.324C376.408 326.324 373.019 350.201 337.766 366.416C337.756 366.409 325.025 369.773 319.866 377.088Z" fill="url(#paint18_linear_358_170)"/>
<path opacity="0.5" d="M165.021 453.066C169.433 446.41 172.161 438.784 172.97 430.846C173.902 421.749 175.474 405.955 178.103 378.6C182.402 333.627 208.406 299.76 236.967 279.727C248.427 271.686 260.652 264.795 274.663 263.341C300.836 260.627 344.869 254.608 349.398 244.504C349.398 244.504 340.387 256.319 341.42 277.931C341.42 277.931 349.871 335.83 317.368 381.375C317.368 381.375 294.938 429.938 209.8 441.843C209.8 441.843 180.683 440.838 165.021 453.066Z" fill="url(#paint19_linear_358_170)"/>
<path opacity="0.5" d="M220.483 323.715C223.166 322.401 225.49 320.454 227.256 318.043C229.278 315.283 232.779 310.481 238.819 302.145C248.732 288.445 263.527 282.435 276.525 281.382C281.739 280.965 286.982 281.058 291.766 283.248C300.71 287.349 316.03 293.769 319.406 291.369C319.406 291.369 314.267 293.473 310.498 300.653C310.498 300.653 302.26 320.973 283.149 329.484C283.149 329.484 266.714 340.907 237.044 328.582C237.033 328.597 227.846 322.736 220.483 323.715Z" fill="url(#paint20_linear_358_170)"/>
<path opacity="0.5" d="M136.886 343.077C142.176 340.442 146.834 336.692 150.542 332.085C154.766 326.83 162.068 317.697 174.661 301.839C195.359 275.786 224.358 263.502 249.276 260.514C259.269 259.305 269.275 259.06 278.122 262.703C294.645 269.513 323.05 280.091 329.796 275.385C329.796 275.385 319.715 279.679 311.598 293.218C311.598 293.218 293.205 331.306 255.656 348.606C255.656 348.606 222.822 371.003 167.813 350.728C167.849 350.731 151.062 340.678 136.886 343.077Z" fill="url(#paint21_linear_358_170)"/>
<path opacity="0.5" d="M129.14 281.038C134.853 279.568 139.88 271.587 144.534 268.034C149.866 263.973 154.887 253.949 170.821 241.669C197.028 221.465 227.806 215.407 252.39 217.179C262.259 217.884 271.875 219.465 279.448 224.408C293.594 233.66 318.172 248.519 325.783 245.416C325.783 245.416 315.081 247.546 303.984 258.517C303.984 258.517 277.021 290.203 236.84 299.314C236.84 299.314 209.419 310.191 171.337 294.889C162.92 291.511 159.898 291.519 146.783 286.141C140.944 283.75 138.107 283.238 129.14 281.038Z" fill="url(#paint22_linear_358_170)"/>
<path opacity="0.5" d="M138.07 176.973C157.225 178.636 159.589 169.366 193.691 165.538C225.107 162.03 251.262 170.303 272.008 180.649C280.324 184.797 288.086 189.537 292.686 196.135C301.287 208.464 316.726 228.939 324.602 229.338C324.602 229.338 314.408 227.075 300.306 231.519C300.306 231.519 264 246.204 225.264 238.568C225.264 238.568 192.425 237.841 163.954 207.022C160.276 202.993 156.976 198.634 154.098 193.998C149.857 187.376 144.422 181.603 138.07 176.973Z" fill="url(#paint23_linear_358_170)"/>
<path opacity="0.5" d="M219.642 225.254C223.326 225.319 226.982 224.579 230.356 223.087C234.201 221.392 240.862 218.428 252.386 213.266C271.318 204.781 290.884 206.314 305.526 211.828C311.405 214.042 317.008 216.779 320.849 221.344C328.031 229.885 340.714 243.933 345.766 243.249C345.766 243.249 338.952 242.728 330.577 247.896C330.577 247.896 309.46 263.723 283.721 262.496C283.721 262.496 259.126 265.468 234.533 238.384C234.553 238.398 228.167 228.005 219.642 225.254Z" fill="url(#paint24_linear_358_170)"/>
<path opacity="0.5" d="M249.079 87.0047C252.482 90.6877 256.714 93.5048 261.425 95.2231C266.824 97.1901 276.199 100.571 292.432 106.399C319.136 115.944 335.95 136.823 343.963 157.124C347.178 165.266 349.584 173.7 348.421 182.358C346.249 198.547 343.477 225.999 348.96 230.286C348.96 230.286 343.09 223.037 329.795 220.321C329.795 220.321 293.358 216.468 270.393 189.883C270.393 189.883 248.3 172.201 248.656 128.273C248.759 122.404 249.352 116.553 250.43 110.78C251.485 104.803 252.509 94.5491 249.079 87.0047Z" fill="url(#paint25_linear_358_170)"/>
<path opacity="0.5" d="M230.07 169.831C233.465 171.255 237.119 171.957 240.802 171.893C244.998 171.797 252.249 171.656 264.805 171.338C285.463 170.837 303.033 179.456 314.586 189.781C319.222 193.921 323.405 198.422 325.295 203.895C328.828 214.124 335.419 231.269 340.371 232.562C340.371 232.562 334.252 229.575 324.591 231.049C324.591 231.049 299.221 237.247 275.816 226.621C275.816 226.621 251.939 220.13 239.072 187.003C239.077 187.007 236.968 175.429 230.07 169.831Z" fill="url(#paint26_linear_358_170)"/>
<path opacity="0.5" d="M318.502 116.864C319.954 119.935 322.117 122.614 324.813 124.676C327.892 127.039 333.257 131.128 342.562 138.171C357.873 149.734 364.497 166.627 365.547 181.391C365.954 187.292 365.82 193.239 363.313 198.597C358.639 208.615 351.298 225.794 353.967 229.677C353.967 229.677 351.654 223.799 343.636 219.336C343.636 219.336 320.9 209.457 311.484 187.624C311.484 187.624 300.819 171.7 309.921 143.404C311.166 139.643 312.723 135.991 314.575 132.487C316.464 128.847 319.194 122.439 318.502 116.864Z" fill="url(#paint27_linear_358_170)"/>
<path opacity="0.5" d="M333.567 112.114C334.84 115.251 336.771 118.077 339.23 120.401C342.035 123.043 346.915 127.615 355.386 135.507C369.312 148.483 375.055 165.587 375.698 179.957C375.957 185.723 375.676 191.445 373.227 196.332C368.654 205.473 361.444 221.225 363.835 225.287C363.835 225.287 361.818 219.335 354.473 214.101C354.473 214.101 333.617 201.912 325.405 179.722C325.405 179.722 315.891 163.082 324.99 136.801C326.224 133.336 327.756 129.986 329.57 126.786C331.392 123.458 334.074 117.581 333.567 112.114Z" fill="url(#paint28_linear_358_170)"/>
<path opacity="0.5" d="M395.288 38.3685C395.02 43.7966 395.917 49.216 397.918 54.262C400.207 60.0011 404.203 69.9612 411.166 87.1843C422.61 115.482 419.403 144.261 410.631 165.61C407.112 174.173 402.845 182.307 395.991 187.77C383.181 197.975 362.072 216.016 362.794 223.544C362.794 223.544 363.889 213.524 356.754 200.953C356.754 200.953 334.707 169.104 337.751 131.212C337.751 131.212 335.138 100.588 366.141 68.4754C370.274 64.2697 374.765 60.4317 379.562 57.005C384.468 53.4074 392.332 46.6637 395.288 38.3685Z" fill="url(#paint29_linear_358_170)"/>
</g>
<defs>
<linearGradient id="paint0_linear_358_170" x1="325.915" y1="373.284" x2="424.082" y2="379.267" gradientUnits="userSpaceOnUse">
<stop stop-color="#FFF050"/>
<stop offset="0.41" stop-color="#FFD84C"/>
<stop offset="1" stop-color="#FFAE46"/>
</linearGradient>
<linearGradient id="paint1_linear_358_170" x1="224.452" y1="394.343" x2="376.326" y2="403.6" gradientUnits="userSpaceOnUse">
<stop stop-color="#98C924"/>
<stop offset="1" stop-color="#639419"/>
</linearGradient>
<linearGradient id="paint2_linear_358_170" x1="309.286" y1="367.103" x2="401.013" y2="372.693" gradientUnits="userSpaceOnUse">
<stop stop-color="#F7425E"/>
<stop offset="1" stop-color="#E81746"/>
</linearGradient>
<linearGradient id="paint3_linear_358_170" x1="315.438" y1="318.287" x2="378.638" y2="322.139" gradientUnits="userSpaceOnUse">
<stop stop-color="#A81106"/>
<stop offset="0.34" stop-color="#C01F19"/>
<stop offset="1" stop-color="#F84145"/>
</linearGradient>
<linearGradient id="paint4_linear_358_170" x1="171.723" y1="343.796" x2="342.753" y2="354.22" gradientUnits="userSpaceOnUse">
<stop stop-color="#F7425E"/>
<stop offset="1" stop-color="#E81746"/>
</linearGradient>
<linearGradient id="paint5_linear_358_170" x1="221.676" y1="304.829" x2="318.264" y2="310.716" gradientUnits="userSpaceOnUse">
<stop stop-color="#A81106"/>
<stop offset="0.34" stop-color="#C01F19"/>
<stop offset="1" stop-color="#F84145"/>
</linearGradient>
<linearGradient id="paint6_linear_358_170" x1="139.325" y1="303.807" x2="327.416" y2="315.271" gradientUnits="userSpaceOnUse">
<stop stop-color="#FF9449"/>
<stop offset="1" stop-color="#F65128"/>
</linearGradient>
<linearGradient id="paint7_linear_358_170" x1="130.811" y1="254.286" x2="324.566" y2="266.095" gradientUnits="userSpaceOnUse">
<stop stop-color="#F7425E"/>
<stop offset="1" stop-color="#E81746"/>
</linearGradient>
<linearGradient id="paint8_linear_358_170" x1="136.868" y1="197.393" x2="325.904" y2="208.914" gradientUnits="userSpaceOnUse">
<stop stop-color="#FFF050"/>
<stop offset="0.41" stop-color="#FFD84C"/>
<stop offset="1" stop-color="#FFAE46"/>
</linearGradient>
<linearGradient id="paint9_linear_358_170" x1="219.316" y1="231.326" x2="346.078" y2="239.052" gradientUnits="userSpaceOnUse">
<stop stop-color="#A81106"/>
<stop offset="0.34" stop-color="#C01F19"/>
<stop offset="1" stop-color="#F84145"/>
</linearGradient>
<linearGradient id="paint10_linear_358_170" x1="244.944" y1="155.484" x2="353.172" y2="162.08" gradientUnits="userSpaceOnUse">
<stop stop-color="#98C924"/>
<stop offset="1" stop-color="#639419"/>
</linearGradient>
<linearGradient id="paint11_linear_358_170" x1="228.35" y1="198.704" x2="342.061" y2="205.635" gradientUnits="userSpaceOnUse">
<stop stop-color="#A81106"/>
<stop offset="0.34" stop-color="#C01F19"/>
<stop offset="1" stop-color="#F84145"/>
</linearGradient>
<linearGradient id="paint12_linear_358_170" x1="305.788" y1="171.494" x2="366.52" y2="175.195" gradientUnits="userSpaceOnUse">
<stop stop-color="#A81106"/>
<stop offset="0.34" stop-color="#C01F19"/>
<stop offset="1" stop-color="#F84145"/>
</linearGradient>
<linearGradient id="paint13_linear_358_170" x1="320.468" y1="167.053" x2="376.686" y2="170.479" gradientUnits="userSpaceOnUse">
<stop stop-color="#A81106"/>
<stop offset="0.34" stop-color="#C01F19"/>
<stop offset="1" stop-color="#F84145"/>
</linearGradient>
<linearGradient id="paint14_linear_358_170" x1="337.717" y1="128.544" x2="418.283" y2="133.454" gradientUnits="userSpaceOnUse">
<stop stop-color="#EF7EC0"/>
<stop offset="0.29" stop-color="#EB66AD"/>
<stop offset="0.91" stop-color="#E2297C"/>
<stop offset="1" stop-color="#E11F74"/>
</linearGradient>
<linearGradient id="paint15_linear_358_170" x1="325.915" y1="373.284" x2="424.082" y2="379.267" gradientUnits="userSpaceOnUse">
<stop stop-color="#FFF050"/>
<stop offset="0.41" stop-color="#FFD84C"/>
<stop offset="1" stop-color="#FFAE46"/>
</linearGradient>
<linearGradient id="paint16_linear_358_170" x1="355.816" y1="451.49" x2="237.39" y2="367.966" gradientUnits="userSpaceOnUse">
<stop stop-color="#F33F41"/>
<stop offset="1" stop-color="#FB6D72"/>
</linearGradient>
<linearGradient id="paint17_linear_358_170" x1="309.286" y1="367.103" x2="401.013" y2="372.693" gradientUnits="userSpaceOnUse">
<stop stop-color="#F7425E"/>
<stop offset="1" stop-color="#E81746"/>
</linearGradient>
<linearGradient id="paint18_linear_358_170" x1="315.438" y1="318.287" x2="378.638" y2="322.139" gradientUnits="userSpaceOnUse">
<stop stop-color="#A81106"/>
<stop offset="0.34" stop-color="#C01F19"/>
<stop offset="1" stop-color="#F84145"/>
</linearGradient>
<linearGradient id="paint19_linear_358_170" x1="171.723" y1="343.796" x2="342.753" y2="354.22" gradientUnits="userSpaceOnUse">
<stop stop-color="#F7425E"/>
<stop offset="1" stop-color="#E81746"/>
</linearGradient>
<linearGradient id="paint20_linear_358_170" x1="221.676" y1="304.829" x2="318.264" y2="310.716" gradientUnits="userSpaceOnUse">
<stop stop-color="#A81106"/>
<stop offset="0.34" stop-color="#C01F19"/>
<stop offset="1" stop-color="#F84145"/>
</linearGradient>
<linearGradient id="paint21_linear_358_170" x1="139.325" y1="303.807" x2="327.416" y2="315.271" gradientUnits="userSpaceOnUse">
<stop stop-color="#FF9449"/>
<stop offset="1" stop-color="#F65128"/>
</linearGradient>
<linearGradient id="paint22_linear_358_170" x1="130.811" y1="254.286" x2="324.566" y2="266.095" gradientUnits="userSpaceOnUse">
<stop stop-color="#F7425E"/>
<stop offset="1" stop-color="#E81746"/>
</linearGradient>
<linearGradient id="paint23_linear_358_170" x1="136.868" y1="197.393" x2="325.904" y2="208.914" gradientUnits="userSpaceOnUse">
<stop stop-color="#FFF050"/>
<stop offset="0.41" stop-color="#FFD84C"/>
<stop offset="1" stop-color="#FFAE46"/>
</linearGradient>
<linearGradient id="paint24_linear_358_170" x1="219.316" y1="231.326" x2="346.078" y2="239.052" gradientUnits="userSpaceOnUse">
<stop stop-color="#A81106"/>
<stop offset="0.34" stop-color="#C01F19"/>
<stop offset="1" stop-color="#F84145"/>
</linearGradient>
<linearGradient id="paint25_linear_358_170" x1="244.944" y1="155.484" x2="353.172" y2="162.08" gradientUnits="userSpaceOnUse">
<stop stop-color="#98C924"/>
<stop offset="1" stop-color="#639419"/>
</linearGradient>
<linearGradient id="paint26_linear_358_170" x1="228.35" y1="198.704" x2="342.061" y2="205.635" gradientUnits="userSpaceOnUse">
<stop stop-color="#A81106"/>
<stop offset="0.34" stop-color="#C01F19"/>
<stop offset="1" stop-color="#F84145"/>
</linearGradient>
<linearGradient id="paint27_linear_358_170" x1="305.788" y1="171.494" x2="366.52" y2="175.195" gradientUnits="userSpaceOnUse">
<stop stop-color="#A81106"/>
<stop offset="0.34" stop-color="#C01F19"/>
<stop offset="1" stop-color="#F84145"/>
</linearGradient>
<linearGradient id="paint28_linear_358_170" x1="320.468" y1="167.053" x2="376.686" y2="170.479" gradientUnits="userSpaceOnUse">
<stop stop-color="#A81106"/>
<stop offset="0.34" stop-color="#C01F19"/>
<stop offset="1" stop-color="#F84145"/>
</linearGradient>
<linearGradient id="paint29_linear_358_170" x1="337.717" y1="128.544" x2="418.283" y2="133.454" gradientUnits="userSpaceOnUse">
<stop stop-color="#EF7EC0"/>
<stop offset="0.29" stop-color="#EB66AD"/>
<stop offset="0.91" stop-color="#E2297C"/>
<stop offset="1" stop-color="#E11F74"/>
</linearGradient>
<clipPath id="clip0_358_170">
<rect width="574.816" height="440.528" fill="white" transform="translate(0 372.739) rotate(-54.8055)"/>
</clipPath>
</defs>
</svg>
