<svg width="14" height="16" viewBox="0 0 14 16" fill="none" xmlns="http://www.w3.org/2000/svg">
<path fill-rule="evenodd" clip-rule="evenodd" d="M9.33504 0H4.66838V1.52374H9.33504V0ZM6.22213 9.90436H7.77768V5.33313H6.22213V9.90436ZM12.4678 4.86894L13.5722 3.78709C13.2378 3.39853 12.8722 3.03283 12.4756 2.71285L11.3711 3.7947C10.1656 2.84998 8.64889 2.2862 7 2.2862C3.13444 2.2862 0 5.35654 0 9.14305C0 12.9295 3.12667 15.9999 7 15.9999C10.8733 15.9999 14 12.9295 14 9.14305C14 7.52788 13.4244 6.04223 12.4678 4.86894ZM7.00105 14.4759C3.99104 14.4759 1.5566 12.0912 1.5566 9.14279C1.5566 6.19435 3.99104 3.80969 7.00105 3.80969C10.011 3.80969 12.4455 6.19435 12.4455 9.14279C12.4455 12.0912 10.011 14.4759 7.00105 14.4759Z" fill="#303030"/>
</svg>
