<svg width="17" height="18" viewBox="0 0 17 18" fill="none" xmlns="http://www.w3.org/2000/svg">
<path d="M8.5 3.9C8.27457 3.9 8.05837 3.98955 7.89896 4.14896C7.73955 4.30837 7.65 4.52457 7.65 4.75V13.25C7.65 13.4754 7.73955 13.6916 7.89896 13.851C8.05837 14.0104 8.27457 14.1 8.5 14.1C8.72543 14.1 8.94164 14.0104 9.10104 13.851C9.26045 13.6916 9.35 13.4754 9.35 13.25V4.75C9.35 4.52457 9.26045 4.30837 9.10104 4.14896C8.94164 3.98955 8.72543 3.9 8.5 3.9ZM4.25 9C4.02457 9 3.80837 9.08955 3.64896 9.24896C3.48955 9.40837 3.4 9.62457 3.4 9.85V13.25C3.4 13.4754 3.48955 13.6916 3.64896 13.851C3.80837 14.0104 4.02457 14.1 4.25 14.1C4.47543 14.1 4.69163 14.0104 4.85104 13.851C5.01045 13.6916 5.1 13.4754 5.1 13.25V9.85C5.1 9.62457 5.01045 9.40837 4.85104 9.24896C4.69163 9.08955 4.47543 9 4.25 9ZM12.75 7.3C12.5246 7.3 12.3084 7.38955 12.149 7.54896C11.9896 7.70837 11.9 7.92457 11.9 8.15V13.25C11.9 13.4754 11.9896 13.6916 12.149 13.851C12.3084 14.0104 12.5246 14.1 12.75 14.1C12.9754 14.1 13.1916 14.0104 13.351 13.851C13.5104 13.6916 13.6 13.4754 13.6 13.25V8.15C13.6 7.92457 13.5104 7.70837 13.351 7.54896C13.1916 7.38955 12.9754 7.3 12.75 7.3ZM14.45 0.5H2.55C1.8737 0.5 1.2251 0.76866 0.746878 1.24688C0.26866 1.7251 0 2.3737 0 3.05V14.95C0 15.6263 0.26866 16.2749 0.746878 16.7531C1.2251 17.2313 1.8737 17.5 2.55 17.5H14.45C15.1263 17.5 15.7749 17.2313 16.2531 16.7531C16.7313 16.2749 17 15.6263 17 14.95V3.05C17 2.3737 16.7313 1.7251 16.2531 1.24688C15.7749 0.76866 15.1263 0.5 14.45 0.5ZM15.3 14.95C15.3 15.1754 15.2104 15.3916 15.051 15.551C14.8916 15.7104 14.6754 15.8 14.45 15.8H2.55C2.32457 15.8 2.10837 15.7104 1.94896 15.551C1.78955 15.3916 1.7 15.1754 1.7 14.95V3.05C1.7 2.82457 1.78955 2.60837 1.94896 2.44896C2.10837 2.28955 2.32457 2.2 2.55 2.2H14.45C14.6754 2.2 14.8916 2.28955 15.051 2.44896C15.2104 2.60837 15.3 2.82457 15.3 3.05V14.95Z" fill="#AEAEAE"/>
</svg>
