<svg width="15" height="15" viewBox="0 0 15 15" fill="none" xmlns="http://www.w3.org/2000/svg">
<path d="M14.2706 4.25146C14.7377 3.78441 15.0001 3.15096 15.0001 2.49045C15.0001 1.82994 14.7377 1.19649 14.2706 0.729435C13.8036 0.262386 13.1701 0 12.5096 0C11.8491 0 11.2157 0.262386 10.7486 0.729435L9.87512 1.60356L13.3965 5.12496L14.2706 4.25146Z" fill="white"/>
<path d="M12.516 6.00529L5.07289 13.4497C4.6739 13.8486 4.17398 14.1316 3.6266 14.2684L0.773865 14.9819C0.669528 15.008 0.5602 15.0067 0.456537 14.978C0.352874 14.9493 0.258411 14.8942 0.182354 14.8182C0.106298 14.7421 0.0512427 14.6477 0.0225543 14.544C-0.00613415 14.4403 -0.00747731 14.331 0.018656 14.2267L0.732151 11.3739C0.868945 10.8266 1.15194 10.3266 1.55086 9.92764L8.994 2.48389L12.516 6.00591V6.00529Z" fill="white"/>
</svg>
