<svg width="214" height="165" viewBox="0 0 214 165" fill="none" xmlns="http://www.w3.org/2000/svg">
<g clip-path="url(#clip0_34_401)">
<path opacity="0.5" d="M46.3787 134.454C48.0836 133.085 49.429 131.324 50.2989 129.321C51.2959 127.025 53.0155 123.035 55.9737 116.114C60.8305 104.742 70.4394 98.066 79.5743 95.2183C83.2413 94.0759 86.1531 93.828 90.8007 94.0852C98.0184 94.4884 108.067 96.3467 111.926 95.4036C111.926 95.4036 111.018 96.3699 109.675 98.5526C108.247 100.893 107.167 103.428 106.47 106.079C105.167 110.956 101.409 121.573 92.1996 128.455C92.1996 128.455 82.3025 139.257 59.0295 135.262C59.0249 135.26 51.4911 132.57 46.3787 134.454Z" fill="url(#paint0_linear_34_401)"/>
<path opacity="0.5" d="M0 110.108C3.08813 108.916 5.84453 107.002 8.03807 104.528C10.5501 101.695 14.8933 96.7615 22.3899 88.1998C34.7062 74.1303 51.6119 68.8913 66.0358 68.9145C71.8221 68.9145 77.5921 69.4984 82.6395 72.3183C92.0765 77.5921 108.304 85.9753 112.263 83.6536C112.263 83.6536 106.387 85.4911 101.507 92.9915C101.507 92.9915 90.3522 114.427 68.4317 122.039C68.4317 122.039 49.1696 133.04 17.733 116.923C17.733 116.923 8.20771 109.693 0 110.108Z" fill="url(#paint1_linear_34_401)"/>
<path opacity="0.5" d="M43.6366 119.629C45.4277 118.681 46.9605 117.312 48.103 115.641C49.4113 113.727 51.677 110.398 55.5787 104.621C61.9901 95.121 71.9011 90.7185 80.7084 89.7314C84.2429 89.3328 87.81 89.2819 91.1168 90.6582C97.2935 93.2348 107.862 97.2434 110.098 95.5427C110.098 95.5427 106.654 97.0789 104.265 102.031C104.265 102.031 99.1386 115.963 86.3599 122.169C86.3599 122.169 75.4659 130.278 55 122.576C55.0024 122.569 48.6165 118.806 43.6366 119.629Z" fill="url(#paint2_linear_34_401)"/>
<path opacity="0.5" d="M67.3116 98.8028C68.5838 98.3809 69.7339 97.6564 70.6625 96.6919C71.7268 95.5867 73.5673 93.6612 76.7439 90.3199C81.9656 84.8284 88.9091 83.0442 94.7605 83.3547C97.1075 83.4798 99.4383 83.8343 101.444 85.0948C105.187 87.4467 111.638 91.212 113.281 90.3454C113.281 90.3454 110.867 90.9733 108.768 93.9369C108.768 93.9369 103.9 102.459 94.8883 105.112C94.8883 105.112 86.8967 109.204 74.3992 101.959C74.3992 101.954 70.6439 98.8028 67.3116 98.8028Z" fill="url(#paint3_linear_34_401)"/>
<path opacity="0.5" d="M10.9707 67.9969C13.9421 67.911 16.8477 67.1045 19.4364 65.6474C22.4039 63.9791 27.5465 61.0688 36.4327 55.999C51.0379 47.6574 66.9212 48.3015 79.1444 52.6925C84.05 54.4535 88.7697 56.6941 92.2182 60.6448C98.6598 68.0247 109.94 80.1293 113.985 79.3392C113.985 79.3392 108.457 79.1329 102.104 84.0846C102.104 84.0846 86.3018 99.0786 65.4711 98.9627C65.4711 98.9627 45.8837 102.559 23.9934 79.2117C23.9934 79.2117 18.0514 70.1379 10.9707 67.9969Z" fill="url(#paint4_linear_34_401)"/>
<path opacity="0.5" d="M62.2247 57.1158C63.2001 57.65 64.2911 57.9394 65.4037 57.9592C66.6772 57.9824 68.8894 58.0172 72.7214 58.0658C79.0166 58.1423 84.0198 61.3538 87.129 65.082C88.3746 66.5789 89.4715 68.1939 89.8316 70.1194C90.5032 73.7202 91.8371 79.7586 93.2918 80.2706C93.2918 80.2706 91.5489 79.1584 88.5559 79.5523C88.5559 79.5523 80.6061 81.406 73.9158 77.4183C73.9158 77.4183 66.9142 74.8695 64.2976 63.1982C64.2906 63.1982 64.1024 59.1456 62.2247 57.1158Z" fill="url(#paint5_linear_34_401)"/>
<path opacity="0.5" d="M38.3964 35.8378C40.3331 36.8815 42.4736 37.4942 44.6707 37.6336C47.1757 37.7912 51.5213 38.053 59.0481 38.4817C71.4154 39.1884 81.3753 45.375 87.631 52.3148C90.143 55.0953 92.3646 58.0867 93.1547 61.56C94.628 68.0479 97.5049 78.9591 100.384 80.0018C100.384 80.0018 96.9146 77.8562 91.054 78.2918C91.054 78.2918 75.5193 80.8684 62.1992 73.1571C62.1992 73.1571 48.34 67.9738 42.7047 46.8881C42.7117 46.8997 42.1679 39.6356 38.3964 35.8378Z" fill="url(#paint6_linear_34_401)"/>
<path opacity="0.5" d="M55.6089 20.1696C57.282 21.5923 60.7887 21.4092 62.8685 22.0627C65.2481 22.8134 69.3752 22.1901 76.5302 24.4029C88.3003 28.0408 96.7474 36.1043 101.483 43.9639C103.386 47.1175 104.969 50.3823 105.09 53.7467C105.311 60.0354 106.064 70.701 108.641 72.3508C108.641 72.3508 105.696 69.5517 99.9775 68.5299C99.9775 68.5299 84.552 67.1257 73.1583 56.8563C73.1583 56.8563 63.9653 50.848 60.4494 35.9792C59.6709 32.6935 59.0202 31.776 57.8421 26.632C57.3169 24.3427 56.8637 23.3695 55.6089 20.1696Z" fill="url(#paint7_linear_34_401)"/>
<path opacity="0.5" d="M89.1857 0.557617C92.7899 6.74197 96.1176 5.47219 104.6 15.0256C112.408 23.8306 115.503 33.5624 116.806 42.094C117.329 45.5141 117.552 48.8924 116.532 51.7077C114.627 56.9698 111.71 66.0598 113.279 68.5415C113.279 68.5415 111.78 64.9546 107.402 61.6179C107.402 61.6179 95.1439 53.7236 89.1554 40.3006C89.1554 40.3006 82.3304 30.154 85.5977 14.8796C86.034 12.8963 86.6524 10.9572 87.4451 9.08688C88.5499 6.37575 89.14 3.48363 89.1857 0.557617Z" fill="url(#paint8_linear_34_401)"/>
<path opacity="0.5" d="M91.9998 35.7336C92.7706 36.8682 93.7801 37.8218 94.958 38.528C96.2988 39.3344 98.6296 40.7246 102.673 43.1228C109.317 47.0619 113.049 53.3436 114.513 58.9811C115.101 61.2449 115.47 63.5365 114.906 65.6845C113.848 69.7023 112.296 76.5749 113.588 77.9651C113.588 77.9651 112.284 75.7801 108.915 74.3412C108.915 74.3412 99.5684 71.3127 94.4189 63.2191C94.4189 63.2191 88.2375 56.3743 91.2004 43.0811C91.2004 43.0904 92.992 38.9173 91.9998 35.7336Z" fill="url(#paint9_linear_34_401)"/>
<path opacity="0.5" d="M140.377 15.0256C139.987 16.8511 140.038 18.743 140.526 20.545C141.086 22.6095 142.069 26.1871 143.779 32.3761C146.605 42.5482 143.86 52.1433 139.403 58.9371C137.616 61.662 135.567 64.2038 132.683 65.7076C127.292 68.5206 118.345 73.5673 118.217 76.1555C118.217 76.1555 119.163 72.8142 117.136 68.1869C117.136 68.1869 110.49 56.2747 113.651 43.5839C113.651 43.5839 114.29 33.0689 127.731 23.7518C129.538 22.5238 131.446 21.4488 133.433 20.538C135.478 19.5764 138.818 17.688 140.377 15.0256Z" fill="url(#paint10_linear_34_401)"/>
<path opacity="0.5" d="M111.099 27.0143C111.394 28.3524 111.965 29.6148 112.775 30.7217C113.704 31.9775 115.303 34.1533 118.094 37.9047C122.679 44.0821 123.827 51.2767 123.164 57.0069C122.9 59.3055 122.428 61.5438 121.168 63.2932C118.814 66.5626 115.013 72.2465 115.682 74.0307C115.682 74.0307 115.277 71.5282 112.756 68.9052C112.756 68.9052 105.427 62.517 103.637 53.1165C103.637 53.1165 100.489 44.4598 107.806 33.4373C107.806 33.4396 110.876 30.3139 111.099 27.0143Z" fill="url(#paint11_linear_34_401)"/>
<path opacity="0.5" d="M146.189 42.5528C145.566 43.6533 145.215 44.8862 145.166 46.149C145.108 47.5925 145.015 50.1019 144.869 54.4442C144.636 61.5832 140.918 67.223 136.652 70.7103C134.944 72.1005 133.106 73.3355 130.938 73.7225C126.887 74.4501 120.085 75.9029 119.477 77.548C119.477 77.548 120.769 75.5831 120.406 72.1863C120.406 72.1863 118.533 63.1495 123.155 55.6004C123.155 55.6004 125.711 48.9387 136.273 45.6369C137.685 45.2084 139.13 44.8984 140.593 44.71C142.106 44.5038 144.641 43.9593 146.189 42.5528Z" fill="url(#paint12_linear_34_401)"/>
<path opacity="0.5" d="M150.867 46.1165C150.185 47.177 149.74 48.3709 149.561 49.6177C149.358 51.038 149.015 53.5034 148.431 57.7739C147.472 64.7947 143.5 70.2121 139.266 73.4908C137.567 74.8069 135.766 75.9492 133.754 76.2528C129.992 76.8228 123.652 78.0091 122.93 79.6079C122.93 79.6079 124.308 77.7172 124.324 74.3597C124.324 74.3597 123.557 65.3995 128.546 58.14C128.546 58.14 131.567 51.6753 141.516 48.8044C142.834 48.4363 144.182 48.1835 145.545 48.049C146.949 47.8891 149.312 47.4442 150.867 46.1165Z" fill="url(#paint13_linear_34_401)"/>
<path opacity="0.5" d="M186.546 49.0708C184.838 50.1539 183.381 51.5895 182.275 53.281C181.02 55.2088 178.848 58.5617 175.102 64.3753C168.948 73.9287 159.504 79.1283 151.127 81.0399C147.767 81.8069 144.376 82.2541 141.244 81.3411C135.39 79.6334 125.372 77.0823 123.237 78.9174C123.237 78.9174 126.52 77.1008 128.814 72.2326C128.814 72.2326 133.773 58.6914 145.954 51.4876C145.954 51.4876 154.71 44.1215 171.133 46.6634C173.299 47.0184 175.43 47.5611 177.502 48.2853C179.649 49.0059 183.388 49.9513 186.546 49.0708Z" fill="url(#paint14_linear_34_401)"/>
<path opacity="0.5" d="M46.3787 134.454C48.0836 133.085 49.429 131.324 50.2989 129.321C51.2959 127.025 53.0155 123.035 55.9737 116.114C60.8305 104.742 70.4394 98.066 79.5743 95.2183C83.2413 94.0759 86.1531 93.828 90.8007 94.0852C98.0184 94.4884 108.067 96.3467 111.926 95.4036C111.926 95.4036 111.018 96.3699 109.675 98.5526C108.247 100.893 107.167 103.428 106.47 106.079C105.167 110.956 101.409 121.573 92.1996 128.455C92.1996 128.455 82.3025 139.257 59.0295 135.262C59.0249 135.26 51.4911 132.57 46.3787 134.454Z" fill="url(#paint15_linear_34_401)"/>
<path opacity="0.5" d="M0 110.108C3.08813 108.916 5.84453 107.002 8.03807 104.528C10.5501 101.695 14.8933 96.7615 22.3899 88.1998C34.7062 74.1303 51.6119 68.8913 66.0358 68.9145C71.8221 68.9145 77.5921 69.4984 82.6395 72.3183C92.0765 77.5921 108.304 85.9753 112.263 83.6536C112.263 83.6536 106.387 85.4911 101.507 92.9915C101.507 92.9915 90.3522 114.427 68.4317 122.039C68.4317 122.039 49.1696 133.04 17.733 116.923C17.733 116.923 8.20771 109.693 0 110.108Z" fill="url(#paint16_linear_34_401)"/>
<path opacity="0.5" d="M43.6366 119.629C45.4277 118.681 46.9605 117.312 48.103 115.641C49.4113 113.727 51.677 110.398 55.5787 104.621C61.9901 95.121 71.9011 90.7185 80.7084 89.7314C84.2429 89.3328 87.81 89.2819 91.1168 90.6582C97.2935 93.2348 107.862 97.2434 110.098 95.5427C110.098 95.5427 106.654 97.0789 104.265 102.031C104.265 102.031 99.1386 115.963 86.3599 122.169C86.3599 122.169 75.4659 130.278 55 122.576C55.0024 122.569 48.6165 118.806 43.6366 119.629Z" fill="url(#paint17_linear_34_401)"/>
<path opacity="0.5" d="M67.3116 98.8028C68.5838 98.3809 69.7339 97.6564 70.6625 96.6919C71.7268 95.5867 73.5673 93.6612 76.7439 90.3199C81.9656 84.8284 88.9091 83.0442 94.7605 83.3547C97.1075 83.4798 99.4383 83.8343 101.444 85.0948C105.187 87.4467 111.638 91.212 113.281 90.3454C113.281 90.3454 110.867 90.9733 108.768 93.9369C108.768 93.9369 103.9 102.459 94.8883 105.112C94.8883 105.112 86.8967 109.204 74.3992 101.959C74.3992 101.954 70.6439 98.8028 67.3116 98.8028Z" fill="url(#paint18_linear_34_401)"/>
<path opacity="0.5" d="M10.9707 67.9969C13.9421 67.911 16.8477 67.1045 19.4364 65.6474C22.4039 63.9791 27.5465 61.0688 36.4327 55.999C51.0379 47.6574 66.9212 48.3015 79.1444 52.6925C84.05 54.4535 88.7697 56.6941 92.2182 60.6448C98.6598 68.0247 109.94 80.1293 113.985 79.3392C113.985 79.3392 108.457 79.1329 102.104 84.0846C102.104 84.0846 86.3018 99.0786 65.4711 98.9627C65.4711 98.9627 45.8837 102.559 23.9934 79.2117C23.9934 79.2117 18.0514 70.1379 10.9707 67.9969Z" fill="url(#paint19_linear_34_401)"/>
<path opacity="0.5" d="M62.2247 57.1158C63.2001 57.65 64.2911 57.9394 65.4037 57.9592C66.6772 57.9824 68.8894 58.0172 72.7214 58.0658C79.0166 58.1423 84.0198 61.3538 87.129 65.082C88.3746 66.5789 89.4715 68.1939 89.8316 70.1194C90.5032 73.7202 91.8371 79.7586 93.2918 80.2706C93.2918 80.2706 91.5489 79.1584 88.5559 79.5523C88.5559 79.5523 80.6061 81.406 73.9158 77.4183C73.9158 77.4183 66.9142 74.8695 64.2976 63.1982C64.2906 63.1982 64.1024 59.1456 62.2247 57.1158Z" fill="url(#paint20_linear_34_401)"/>
<path opacity="0.5" d="M38.3964 35.8378C40.3331 36.8815 42.4736 37.4942 44.6707 37.6336C47.1757 37.7912 51.5213 38.053 59.0481 38.4817C71.4154 39.1884 81.3753 45.375 87.631 52.3148C90.143 55.0953 92.3646 58.0867 93.1547 61.56C94.628 68.0479 97.5049 78.9591 100.384 80.0018C100.384 80.0018 96.9146 77.8562 91.054 78.2918C91.054 78.2918 75.5193 80.8684 62.1992 73.1571C62.1992 73.1571 48.34 67.9738 42.7047 46.8881C42.7117 46.8997 42.1679 39.6356 38.3964 35.8378Z" fill="url(#paint21_linear_34_401)"/>
<path opacity="0.5" d="M55.6089 20.1696C57.282 21.5923 60.7887 21.4092 62.8685 22.0627C65.2481 22.8134 69.3752 22.1901 76.5302 24.4029C88.3003 28.0408 96.7474 36.1043 101.483 43.9639C103.386 47.1175 104.969 50.3823 105.09 53.7467C105.311 60.0354 106.064 70.701 108.641 72.3508C108.641 72.3508 105.696 69.5517 99.9775 68.5299C99.9775 68.5299 84.552 67.1257 73.1583 56.8563C73.1583 56.8563 63.9653 50.848 60.4494 35.9792C59.6709 32.6935 59.0202 31.776 57.8421 26.632C57.3169 24.3427 56.8637 23.3695 55.6089 20.1696Z" fill="url(#paint22_linear_34_401)"/>
<path opacity="0.5" d="M89.1857 0.557617C92.7899 6.74197 96.1176 5.47219 104.6 15.0256C112.408 23.8306 115.503 33.5624 116.806 42.094C117.329 45.5141 117.552 48.8924 116.532 51.7077C114.627 56.9698 111.71 66.0598 113.279 68.5415C113.279 68.5415 111.78 64.9546 107.402 61.6179C107.402 61.6179 95.1439 53.7236 89.1554 40.3006C89.1554 40.3006 82.3304 30.154 85.5977 14.8796C86.034 12.8963 86.6524 10.9572 87.4451 9.08688C88.5499 6.37575 89.14 3.48363 89.1857 0.557617Z" fill="url(#paint23_linear_34_401)"/>
<path opacity="0.5" d="M91.9998 35.7336C92.7706 36.8682 93.7801 37.8218 94.958 38.528C96.2988 39.3344 98.6296 40.7246 102.673 43.1228C109.317 47.0619 113.049 53.3436 114.513 58.9811C115.101 61.2449 115.47 63.5365 114.906 65.6845C113.848 69.7023 112.296 76.5749 113.588 77.9651C113.588 77.9651 112.284 75.7801 108.915 74.3412C108.915 74.3412 99.5684 71.3127 94.4189 63.2191C94.4189 63.2191 88.2375 56.3743 91.2004 43.0811C91.2004 43.0904 92.992 38.9173 91.9998 35.7336Z" fill="url(#paint24_linear_34_401)"/>
<path opacity="0.5" d="M140.377 15.0256C139.987 16.8511 140.038 18.743 140.526 20.545C141.086 22.6095 142.069 26.1871 143.779 32.3761C146.605 42.5482 143.86 52.1433 139.403 58.9371C137.616 61.662 135.567 64.2038 132.683 65.7076C127.292 68.5206 118.345 73.5673 118.217 76.1555C118.217 76.1555 119.163 72.8142 117.136 68.1869C117.136 68.1869 110.49 56.2747 113.651 43.5839C113.651 43.5839 114.29 33.0689 127.731 23.7518C129.538 22.5238 131.446 21.4488 133.433 20.538C135.478 19.5764 138.818 17.688 140.377 15.0256Z" fill="url(#paint25_linear_34_401)"/>
<path opacity="0.5" d="M111.099 27.0143C111.394 28.3524 111.965 29.6148 112.775 30.7217C113.704 31.9775 115.303 34.1533 118.094 37.9047C122.679 44.0821 123.827 51.2767 123.164 57.0069C122.9 59.3055 122.428 61.5438 121.168 63.2932C118.814 66.5626 115.013 72.2465 115.682 74.0307C115.682 74.0307 115.277 71.5282 112.756 68.9052C112.756 68.9052 105.427 62.517 103.637 53.1165C103.637 53.1165 100.489 44.4598 107.806 33.4373C107.806 33.4396 110.876 30.3139 111.099 27.0143Z" fill="url(#paint26_linear_34_401)"/>
<path opacity="0.5" d="M146.189 42.5528C145.566 43.6533 145.215 44.8862 145.166 46.149C145.108 47.5925 145.015 50.1019 144.869 54.4442C144.636 61.5832 140.918 67.223 136.652 70.7103C134.944 72.1005 133.106 73.3355 130.938 73.7225C126.887 74.4501 120.085 75.9029 119.477 77.548C119.477 77.548 120.769 75.5831 120.406 72.1863C120.406 72.1863 118.533 63.1495 123.155 55.6004C123.155 55.6004 125.711 48.9387 136.273 45.6369C137.685 45.2084 139.13 44.8984 140.593 44.71C142.106 44.5038 144.641 43.9593 146.189 42.5528Z" fill="url(#paint27_linear_34_401)"/>
<path opacity="0.5" d="M150.867 46.1165C150.185 47.177 149.74 48.3709 149.561 49.6177C149.358 51.038 149.015 53.5034 148.431 57.7739C147.472 64.7947 143.5 70.2121 139.266 73.4908C137.567 74.8069 135.766 75.9492 133.754 76.2528C129.992 76.8228 123.652 78.0091 122.93 79.6079C122.93 79.6079 124.308 77.7172 124.324 74.3597C124.324 74.3597 123.557 65.3995 128.546 58.14C128.546 58.14 131.567 51.6753 141.516 48.8044C142.834 48.4363 144.182 48.1835 145.545 48.049C146.949 47.8891 149.312 47.4442 150.867 46.1165Z" fill="url(#paint28_linear_34_401)"/>
<path opacity="0.5" d="M186.546 49.0708C184.838 50.1539 183.381 51.5895 182.275 53.281C181.02 55.2088 178.848 58.5617 175.102 64.3753C168.948 73.9287 159.504 79.1283 151.127 81.0399C147.767 81.8069 144.376 82.2541 141.244 81.3411C135.39 79.6334 125.372 77.0823 123.237 78.9174C123.237 78.9174 126.52 77.1008 128.814 72.2326C128.814 72.2326 133.773 58.6914 145.954 51.4876C145.954 51.4876 154.71 44.1215 171.133 46.6634C173.299 47.0184 175.43 47.5611 177.502 48.2853C179.649 49.0059 183.388 49.9513 186.546 49.0708Z" fill="url(#paint29_linear_34_401)"/>
<path fill-rule="evenodd" clip-rule="evenodd" d="M158.459 96.8124C158.082 97.3644 157.742 97.9403 157.441 98.5364C154.594 103.099 151.747 107.663 148.898 112.126C148.898 112.126 139.031 96.203 138.118 94.683C137.712 93.8697 137.1 93.2626 136.389 92.6532C134.96 91.5648 133.203 90.9928 131.405 91.0313C129.529 90.9953 127.697 91.604 126.218 92.7552C124.738 93.9474 123.758 95.6483 123.471 97.5238L123.067 131.092L122.862 132.41V132.51C122.87 133.408 123.064 134.295 123.432 135.116C123.8 135.936 124.334 136.671 125 137.276C126.29 138.417 127.945 139.064 129.669 139.102C133.227 139.102 135.769 136.871 136.28 133.117C136.28 133.117 137.193 126.629 138.213 120.141C139.575 124.812 140.965 129.477 142.382 134.134C143.296 137.278 145.738 139.104 149.094 139.104C152.147 139.104 154.383 137.278 155.4 134.134C155.4 134.134 157.434 127.139 159.583 120.141L161.412 133.117C162.021 136.871 164.563 139.102 168.126 139.102C169.053 139.108 169.971 138.912 170.814 138.527C171.657 138.141 172.405 137.576 173.006 136.871C174.126 135.654 174.737 134.03 174.737 132.104V131.903L174.328 97.5238C174.196 96.5796 173.876 95.6712 173.387 94.8522C172.898 94.0332 172.249 93.3202 171.479 92.7552C170.028 91.6186 168.23 91.0104 166.385 91.0313C162.418 91.0313 160.28 93.8697 158.452 96.824L158.459 96.8124Z" fill="url(#paint30_linear_34_401)"/>
<path fill-rule="evenodd" clip-rule="evenodd" d="M210.231 128.151C210.231 128.151 206.162 123.788 202.906 120.241C204.634 119.616 206.198 118.612 207.484 117.303C210.129 114.765 211.553 111.318 211.553 107.161C211.553 102.494 210.026 98.6406 206.975 95.8068C203.922 92.8641 199.955 91.446 195.379 91.446H185.919C184.137 91.4531 182.426 92.1424 181.139 93.3715L181.037 93.4735C179.833 94.7682 179.178 96.4768 179.208 98.2421V132.401C179.198 133.268 179.364 134.129 179.696 134.93C180.028 135.732 180.519 136.459 181.139 137.067C182.067 137.96 183.235 138.565 184.501 138.809C185.767 139.053 187.077 138.926 188.272 138.443C189.467 137.96 190.496 137.142 191.234 136.087C191.972 135.033 192.388 133.788 192.43 132.503V127.637C196.193 131.998 200.262 136.674 200.262 136.674C200.862 137.444 201.634 138.065 202.516 138.488C203.399 138.91 204.367 139.122 205.346 139.107C206.226 139.117 207.097 138.942 207.904 138.593C208.711 138.243 209.434 137.727 210.026 137.079C211.166 135.882 211.818 134.305 211.856 132.656C211.893 131.006 211.314 129.401 210.231 128.154V128.151ZM197.436 108.803C197.186 109.053 196.889 109.252 196.562 109.387C196.235 109.522 195.884 109.592 195.53 109.591H192.326V104.218H195.53C196.063 104.219 196.583 104.376 197.026 104.672C197.468 104.967 197.813 105.386 198.017 105.877C198.221 106.367 198.275 106.907 198.171 107.428C198.068 107.949 197.812 108.427 197.436 108.803Z" fill="url(#paint31_linear_34_401)"/>
<mask id="mask0_34_401" style="mask-type:luminance" maskUnits="userSpaceOnUse" x="122" y="91" width="90" height="49">
<path d="M158.459 96.8124C158.082 97.3644 157.742 97.9403 157.441 98.5364C154.594 103.099 151.747 107.663 148.898 112.126C148.898 112.126 139.031 96.203 138.118 94.683C137.712 93.8697 137.1 93.2626 136.389 92.6532C134.96 91.5648 133.203 90.9928 131.405 91.0313C129.529 90.9953 127.697 91.604 126.218 92.7552C124.738 93.9474 123.758 95.6483 123.471 97.5238L123.067 131.092L122.862 132.41V132.51C122.87 133.408 123.064 134.295 123.432 135.116C123.8 135.936 124.334 136.671 125 137.276C126.29 138.417 127.945 139.064 129.669 139.102C133.227 139.102 135.769 136.871 136.28 133.117C136.28 133.117 137.193 126.629 138.213 120.141C139.575 124.812 140.965 129.477 142.382 134.134C143.296 137.278 145.738 139.104 149.094 139.104C152.147 139.104 154.383 137.278 155.4 134.134C155.4 134.134 157.434 127.139 159.583 120.141L161.412 133.117C162.021 136.871 164.563 139.102 168.126 139.102C169.053 139.108 169.971 138.912 170.814 138.527C171.657 138.141 172.405 137.576 173.006 136.871C174.126 135.654 174.737 134.03 174.737 132.104V131.903L174.328 97.5238C174.196 96.5796 173.876 95.6712 173.387 94.8522C172.898 94.0332 172.249 93.3202 171.479 92.7552C170.028 91.6186 168.23 91.0104 166.385 91.0313C162.418 91.0313 160.28 93.8697 158.452 96.824L158.459 96.8124ZM185.919 91.4368C184.137 91.4439 182.426 92.1332 181.139 93.3623L181.037 93.4642C179.832 94.7586 179.176 96.4672 179.206 98.2328V132.401C179.196 133.268 179.363 134.129 179.695 134.931C180.027 135.733 180.518 136.459 181.139 137.067C182.067 137.96 183.235 138.566 184.501 138.81C185.767 139.054 187.076 138.927 188.271 138.444C189.466 137.961 190.495 137.142 191.233 136.088C191.971 135.033 192.386 133.788 192.428 132.503V127.637C196.193 131.998 200.262 136.662 200.262 136.662C200.862 137.433 201.633 138.055 202.516 138.478C203.398 138.9 204.367 139.113 205.346 139.097C206.226 139.108 207.097 138.932 207.904 138.583C208.71 138.234 209.434 137.718 210.026 137.07C210.62 136.468 211.087 135.755 211.402 134.971C211.716 134.187 211.871 133.349 211.857 132.505C211.893 130.898 211.311 129.338 210.231 128.144C210.231 128.144 206.164 123.781 202.908 120.234C204.637 119.609 206.201 118.604 207.486 117.293C210.131 114.756 211.553 111.311 211.553 107.154C211.553 102.487 210.029 98.6337 206.975 95.7999C203.924 92.8572 199.957 91.4368 195.382 91.4368H185.919ZM195.175 104.216C195.591 104.204 196.004 104.279 196.389 104.436C196.774 104.594 197.122 104.829 197.41 105.129C198.021 105.636 198.224 106.245 198.224 107.054C198.238 107.376 198.181 107.697 198.058 107.995C197.936 108.293 197.749 108.561 197.513 108.78C197.278 109.032 196.995 109.234 196.681 109.373C196.366 109.513 196.026 109.587 195.681 109.591H192.326V104.216H195.175Z" fill="white"/>
</mask>
<g mask="url(#mask0_34_401)">
<g opacity="0.5">
<path opacity="0.5" d="M214 70.3511C211.343 71.3756 208.973 73.0213 207.087 75.1498C204.928 77.5851 201.191 81.8277 194.747 89.1892C184.153 101.289 169.615 105.794 157.213 105.775C152.238 105.775 147.276 105.272 142.933 102.846C134.821 98.3116 120.857 91.1031 117.46 93.0981C117.46 93.0981 122.514 91.5202 126.711 85.0694C126.711 85.0694 136.31 66.6368 155.152 60.091C155.152 60.091 171.718 50.6302 198.749 64.4935C198.749 64.4912 206.94 70.6987 214 70.3511Z" fill="white"/>
<path opacity="0.5" d="M156.114 80.076C155.021 80.439 154.033 81.0608 153.235 81.888C152.319 82.838 150.737 84.4924 148.004 87.3656C143.514 92.0879 137.547 93.6218 132.511 93.3553C130.494 93.2487 128.488 92.9429 126.764 91.8608C123.546 89.838 117.996 86.5986 116.583 87.3447C116.583 87.3447 118.659 86.8049 120.464 84.256C120.464 84.256 124.647 76.927 132.402 74.647C132.402 74.647 139.273 71.1273 150.021 77.358C150.021 77.3627 153.246 80.0714 156.114 80.076Z" fill="white"/>
<path opacity="0.5" d="M204.565 106.565C202.013 106.639 199.516 107.332 197.292 108.583C194.736 110.018 190.32 112.522 182.677 116.881C170.103 124.043 156.451 123.501 145.936 119.724C141.718 118.211 137.658 116.283 134.693 112.886C129.153 106.54 119.453 96.1289 115.975 96.8078C115.975 96.8078 120.727 96.9862 126.199 92.7274C126.199 92.7274 139.789 79.835 157.701 79.9346C157.701 79.9346 174.546 76.8436 193.369 96.919C193.367 96.919 198.477 104.723 204.565 106.565Z" fill="white"/>
<path opacity="0.5" d="M160.49 115.922C159.651 115.461 158.713 115.212 157.757 115.194C156.66 115.175 154.759 115.145 151.464 115.104C146.049 115.039 141.748 112.277 139.076 109.079C138.004 107.793 137.061 106.403 136.752 104.746C136.173 101.651 135.028 96.4579 133.775 96.0177C133.775 96.0177 135.274 96.9746 137.849 96.6363C137.849 96.6363 144.685 95.0491 150.444 98.4715C150.444 98.4715 156.465 100.663 158.714 110.701C158.717 110.692 158.877 114.174 160.49 115.922Z" fill="white"/>
<path opacity="0.5" d="M180.981 134.217C179.315 133.32 177.473 132.793 175.583 132.674C173.431 132.538 169.692 132.315 163.22 131.944C152.584 131.337 144.018 126.017 138.636 120.048C136.475 117.652 134.565 115.085 133.887 112.098C132.618 106.519 130.145 97.1368 127.668 96.2401C127.668 96.2401 130.654 98.0938 135.692 97.7115C135.692 97.7115 149.052 95.494 160.506 102.114C160.506 102.114 172.425 106.572 177.27 124.703C177.27 124.715 177.737 130.953 180.981 134.217Z" fill="white"/>
<path opacity="0.5" d="M166.178 147.694C164.742 146.473 161.726 146.628 159.937 146.072C157.889 145.425 154.359 145.963 148.19 144.058C138.067 140.93 130.807 133.995 126.729 127.238C125.103 124.527 123.729 121.717 123.629 118.825C123.439 113.417 122.793 104.246 120.576 102.825C120.576 102.825 123.106 105.233 128.026 106.111C128.026 106.111 141.29 107.318 151.087 116.151C151.087 116.151 158.988 121.318 162.009 134.104C162.676 136.928 163.236 137.719 164.249 142.142C164.71 144.105 165.1 144.941 166.178 147.694Z" fill="white"/>
<path opacity="0.5" d="M137.305 164.558C134.205 159.24 131.344 160.331 124.059 152.117C117.343 144.554 114.683 136.173 113.563 128.839C113.114 125.897 112.921 122.993 113.795 120.572C115.422 116.047 117.943 108.229 116.583 106.095C116.583 106.095 117.873 109.179 121.638 112.05C121.638 112.05 132.179 118.839 137.328 130.376C137.328 130.376 143.198 139.1 140.389 152.238C140.012 153.939 139.479 155.603 138.797 157.208C137.847 159.544 137.341 162.037 137.305 164.558Z" fill="white"/>
<path opacity="0.5" d="M134.886 134.308C134.218 133.332 133.346 132.512 132.33 131.905C131.168 131.21 129.172 130.017 125.695 127.954C119.981 124.569 116.772 119.166 115.512 114.316C115.008 112.369 114.692 110.4 115.178 108.553C116.084 105.098 117.42 99.1944 116.309 97.9872C116.309 97.9872 117.429 99.8641 120.327 101.104C120.327 101.104 128.365 103.708 132.794 110.664C132.794 110.664 138.109 116.552 135.56 127.982C135.571 127.982 134.031 131.569 134.886 134.308Z" fill="white"/>
<path opacity="0.5" d="M118.461 141.806C118.206 140.657 117.716 139.573 117.02 138.622C116.226 137.542 114.845 135.67 112.447 132.438C108.497 127.127 107.516 120.94 108.085 116.014C108.318 114.035 108.717 112.11 109.803 110.606C111.827 107.796 115.094 102.906 114.52 101.372C114.52 101.372 114.868 103.525 117.037 105.775C117.037 105.775 123.339 111.269 124.877 119.353C124.877 119.353 127.584 126.798 121.294 136.268C121.303 136.28 118.654 138.97 118.461 141.806Z" fill="white"/>
</g>
</g>
</g>
<defs>
<linearGradient id="paint0_linear_34_401" x1="69.7668" y1="99.8268" x2="89.0096" y2="130.976" gradientUnits="userSpaceOnUse">
<stop stop-color="#FFF050"/>
<stop offset="0.41" stop-color="#FFD84C"/>
<stop offset="1" stop-color="#FFAE46"/>
</linearGradient>
<linearGradient id="paint1_linear_34_401" x1="41.5884" y1="73.4775" x2="71.3588" y2="121.669" gradientUnits="userSpaceOnUse">
<stop stop-color="#98C924"/>
<stop offset="1" stop-color="#639419"/>
</linearGradient>
<linearGradient id="paint2_linear_34_401" x1="68.0793" y1="93.4416" x2="86.0595" y2="122.547" gradientUnits="userSpaceOnUse">
<stop stop-color="#F7425E"/>
<stop offset="1" stop-color="#E81746"/>
</linearGradient>
<linearGradient id="paint3_linear_34_401" x1="84.2507" y1="84.839" x2="96.6393" y2="104.893" gradientUnits="userSpaceOnUse">
<stop stop-color="#A81106"/>
<stop offset="0.34" stop-color="#C01F19"/>
<stop offset="1" stop-color="#F84145"/>
</linearGradient>
<linearGradient id="paint4_linear_34_401" x1="45.6526" y1="46.5903" x2="79.178" y2="100.86" gradientUnits="userSpaceOnUse">
<stop stop-color="#F7425E"/>
<stop offset="1" stop-color="#E81746"/>
</linearGradient>
<linearGradient id="paint5_linear_34_401" x1="68.2265" y1="53.4264" x2="87.1598" y2="84.0749" gradientUnits="userSpaceOnUse">
<stop stop-color="#A81106"/>
<stop offset="0.34" stop-color="#C01F19"/>
<stop offset="1" stop-color="#F84145"/>
</linearGradient>
<linearGradient id="paint6_linear_34_401" x1="50.8672" y1="28.1538" x2="87.7368" y2="87.8371" gradientUnits="userSpaceOnUse">
<stop stop-color="#FF9449"/>
<stop offset="1" stop-color="#F65128"/>
</linearGradient>
<linearGradient id="paint7_linear_34_401" x1="64.1066" y1="14.9379" x2="102.087" y2="76.4185" gradientUnits="userSpaceOnUse">
<stop stop-color="#F7425E"/>
<stop offset="1" stop-color="#E81746"/>
</linearGradient>
<linearGradient id="paint8_linear_34_401" x1="82.7153" y1="4.57352" x2="119.77" y2="64.5567" gradientUnits="userSpaceOnUse">
<stop stop-color="#FFF050"/>
<stop offset="0.41" stop-color="#FFD84C"/>
<stop offset="1" stop-color="#FFAE46"/>
</linearGradient>
<linearGradient id="paint9_linear_34_401" x1="90.0825" y1="36.9373" x2="114.93" y2="77.1602" gradientUnits="userSpaceOnUse">
<stop stop-color="#A81106"/>
<stop offset="0.34" stop-color="#C01F19"/>
<stop offset="1" stop-color="#F84145"/>
</linearGradient>
<linearGradient id="paint10_linear_34_401" x1="118.656" y1="28.461" x2="139.871" y2="62.8028" gradientUnits="userSpaceOnUse">
<stop stop-color="#98C924"/>
<stop offset="1" stop-color="#639419"/>
</linearGradient>
<linearGradient id="paint11_linear_34_401" x1="101.946" y1="32.6861" x2="124.236" y2="68.7679" gradientUnits="userSpaceOnUse">
<stop stop-color="#A81106"/>
<stop offset="0.34" stop-color="#C01F19"/>
<stop offset="1" stop-color="#F84145"/>
</linearGradient>
<linearGradient id="paint12_linear_34_401" x1="126.84" y1="50.4063" x2="138.745" y2="69.6773" gradientUnits="userSpaceOnUse">
<stop stop-color="#A81106"/>
<stop offset="0.34" stop-color="#C01F19"/>
<stop offset="1" stop-color="#F84145"/>
</linearGradient>
<linearGradient id="paint13_linear_34_401" x1="131.341" y1="53.9196" x2="142.361" y2="71.7583" gradientUnits="userSpaceOnUse">
<stop stop-color="#A81106"/>
<stop offset="0.34" stop-color="#C01F19"/>
<stop offset="1" stop-color="#F84145"/>
</linearGradient>
<linearGradient id="paint14_linear_34_401" x1="146.758" y1="50.9047" x2="162.551" y2="76.4692" gradientUnits="userSpaceOnUse">
<stop stop-color="#EF7EC0"/>
<stop offset="0.29" stop-color="#EB66AD"/>
<stop offset="0.91" stop-color="#E2297C"/>
<stop offset="1" stop-color="#E11F74"/>
</linearGradient>
<linearGradient id="paint15_linear_34_401" x1="69.7668" y1="99.8268" x2="89.0096" y2="130.976" gradientUnits="userSpaceOnUse">
<stop stop-color="#FFF050"/>
<stop offset="0.41" stop-color="#FFD84C"/>
<stop offset="1" stop-color="#FFAE46"/>
</linearGradient>
<linearGradient id="paint16_linear_34_401" x1="41.5884" y1="73.4775" x2="71.3588" y2="121.669" gradientUnits="userSpaceOnUse">
<stop stop-color="#98C924"/>
<stop offset="1" stop-color="#639419"/>
</linearGradient>
<linearGradient id="paint17_linear_34_401" x1="68.0793" y1="93.4416" x2="86.0595" y2="122.547" gradientUnits="userSpaceOnUse">
<stop stop-color="#F7425E"/>
<stop offset="1" stop-color="#E81746"/>
</linearGradient>
<linearGradient id="paint18_linear_34_401" x1="84.2507" y1="84.839" x2="96.6393" y2="104.893" gradientUnits="userSpaceOnUse">
<stop stop-color="#A81106"/>
<stop offset="0.34" stop-color="#C01F19"/>
<stop offset="1" stop-color="#F84145"/>
</linearGradient>
<linearGradient id="paint19_linear_34_401" x1="45.6526" y1="46.5903" x2="79.178" y2="100.86" gradientUnits="userSpaceOnUse">
<stop stop-color="#F7425E"/>
<stop offset="1" stop-color="#E81746"/>
</linearGradient>
<linearGradient id="paint20_linear_34_401" x1="68.2265" y1="53.4264" x2="87.1598" y2="84.0749" gradientUnits="userSpaceOnUse">
<stop stop-color="#A81106"/>
<stop offset="0.34" stop-color="#C01F19"/>
<stop offset="1" stop-color="#F84145"/>
</linearGradient>
<linearGradient id="paint21_linear_34_401" x1="50.8672" y1="28.1538" x2="87.7368" y2="87.8371" gradientUnits="userSpaceOnUse">
<stop stop-color="#FF9449"/>
<stop offset="1" stop-color="#F65128"/>
</linearGradient>
<linearGradient id="paint22_linear_34_401" x1="64.1066" y1="14.9379" x2="102.087" y2="76.4185" gradientUnits="userSpaceOnUse">
<stop stop-color="#F7425E"/>
<stop offset="1" stop-color="#E81746"/>
</linearGradient>
<linearGradient id="paint23_linear_34_401" x1="82.7153" y1="4.57352" x2="119.77" y2="64.5567" gradientUnits="userSpaceOnUse">
<stop stop-color="#FFF050"/>
<stop offset="0.41" stop-color="#FFD84C"/>
<stop offset="1" stop-color="#FFAE46"/>
</linearGradient>
<linearGradient id="paint24_linear_34_401" x1="90.0825" y1="36.9373" x2="114.93" y2="77.1602" gradientUnits="userSpaceOnUse">
<stop stop-color="#A81106"/>
<stop offset="0.34" stop-color="#C01F19"/>
<stop offset="1" stop-color="#F84145"/>
</linearGradient>
<linearGradient id="paint25_linear_34_401" x1="118.656" y1="28.461" x2="139.871" y2="62.8028" gradientUnits="userSpaceOnUse">
<stop stop-color="#98C924"/>
<stop offset="1" stop-color="#639419"/>
</linearGradient>
<linearGradient id="paint26_linear_34_401" x1="101.946" y1="32.6861" x2="124.236" y2="68.7679" gradientUnits="userSpaceOnUse">
<stop stop-color="#A81106"/>
<stop offset="0.34" stop-color="#C01F19"/>
<stop offset="1" stop-color="#F84145"/>
</linearGradient>
<linearGradient id="paint27_linear_34_401" x1="126.84" y1="50.4063" x2="138.745" y2="69.6773" gradientUnits="userSpaceOnUse">
<stop stop-color="#A81106"/>
<stop offset="0.34" stop-color="#C01F19"/>
<stop offset="1" stop-color="#F84145"/>
</linearGradient>
<linearGradient id="paint28_linear_34_401" x1="131.341" y1="53.9196" x2="142.361" y2="71.7583" gradientUnits="userSpaceOnUse">
<stop stop-color="#A81106"/>
<stop offset="0.34" stop-color="#C01F19"/>
<stop offset="1" stop-color="#F84145"/>
</linearGradient>
<linearGradient id="paint29_linear_34_401" x1="146.758" y1="50.9047" x2="162.551" y2="76.4692" gradientUnits="userSpaceOnUse">
<stop stop-color="#EF7EC0"/>
<stop offset="0.29" stop-color="#EB66AD"/>
<stop offset="0.91" stop-color="#E2297C"/>
<stop offset="1" stop-color="#E11F74"/>
</linearGradient>
<linearGradient id="paint30_linear_34_401" x1="148.798" y1="91.0313" x2="148.798" y2="139.102" gradientUnits="userSpaceOnUse">
<stop stop-color="#FF9E21"/>
<stop offset="0.38" stop-color="#FF622E"/>
<stop offset="0.8" stop-color="#FF253C"/>
<stop offset="1" stop-color="#FF0D41"/>
</linearGradient>
<linearGradient id="paint31_linear_34_401" x1="195.533" y1="91.4367" x2="195.533" y2="139.104" gradientUnits="userSpaceOnUse">
<stop offset="0.03" stop-color="#9CDE00"/>
<stop offset="1" stop-color="#508500"/>
</linearGradient>
<clipPath id="clip0_34_401">
<rect width="214" height="164" fill="white" transform="translate(0 0.557617)"/>
</clipPath>
</defs>
</svg>
