<svg width="25" height="15" viewBox="0 0 25 15" fill="none" xmlns="http://www.w3.org/2000/svg">
<g clip-path="url(#clip0_221_978)">
<path d="M2.26416e-05 0.765181C-0.00179428 0.664815 0.0167897 0.565132 0.0546364 0.472239C0.092483 0.379345 0.148796 0.295196 0.220125 0.224945C0.390705 0.0614603 0.623647 0 0.911003 0C8.63865 0.00491682 16.3663 0.0063509 24.0939 0.00430222C24.2127 0.00430222 24.3303 0.0278141 24.44 0.0734956C24.5497 0.119177 24.6494 0.186133 24.7333 0.270542C24.8173 0.35495 24.8839 0.455157 24.9294 0.565442C24.9748 0.675726 24.9982 0.793929 24.9982 0.9133C24.9982 2.09088 24.9982 3.26866 24.9982 4.44665C24.9982 5.03667 24.7579 5.29358 24.1685 5.33721C22.6908 5.44784 21.7688 6.82209 22.2549 8.22953C22.5453 9.06785 23.1719 9.53126 24.045 9.65418C24.1496 9.66893 24.2566 9.66709 24.3605 9.6843C24.7438 9.74576 24.9915 10.0162 24.9933 10.4058C24.9994 11.6904 24.9994 12.9747 24.9933 14.2588C24.9933 14.6583 24.7322 14.9312 24.3379 14.9834C24.2578 14.9945 8.63722 14.9945 0.909169 15C0.467741 15 0.153483 14.8513 -0.00181155 14.4217V10.6326C-0.00337642 10.3839 0.0892619 10.1438 0.257307 9.96119C0.425351 9.77857 0.656215 9.66705 0.903055 9.64927H0.917117C2.00724 9.58473 2.88031 8.6112 2.88031 7.49816C2.88031 6.38511 2.00724 5.41404 0.917117 5.34705H0.904889C0.658684 5.3293 0.42835 5.2183 0.260398 5.03646C0.0924461 4.85463 -0.000609377 4.6155 2.26416e-05 4.36737V0.765181ZM23.5547 13.5293C23.5547 12.7764 23.5461 12.0487 23.5602 11.3216C23.5645 11.1083 23.4917 11.0346 23.2942 10.9805C21.5102 10.4925 20.3656 8.64132 20.7435 6.82332C21.0492 5.36548 21.9345 4.42637 23.3554 4.00414C23.5045 3.95989 23.5669 3.89966 23.559 3.73679C23.5449 3.45161 23.5547 3.16459 23.5547 2.87634V1.47505H8.40917V1.75285C8.40917 2.39081 8.41528 3.02938 8.40183 3.66734C8.3956 3.85322 8.31754 4.02935 8.18423 4.15831C8.05091 4.28728 7.87284 4.35893 7.68782 4.35805C7.5028 4.35717 7.32541 4.28383 7.19331 4.1536C7.06121 4.02337 6.98481 3.84651 6.98034 3.66058C6.96872 3.21069 6.97606 2.7608 6.97544 2.30845C6.97544 2.03249 6.97544 1.75531 6.97544 1.47197H1.44353V3.46943C1.44353 3.92301 1.44353 3.9224 1.85622 4.06253C1.94059 4.09141 2.02497 4.12399 2.10689 4.15717C3.50271 4.75334 4.41797 6.19028 4.32076 7.62968C4.20826 9.29403 3.20374 10.5663 1.65446 10.9928C1.49244 11.037 1.43558 11.1028 1.43925 11.2749C1.45087 11.8471 1.44353 12.4199 1.44353 12.9958V13.5213H6.97544C6.97544 12.8102 6.97544 12.1157 6.97544 11.4218C6.97544 10.9651 7.26647 10.6505 7.67733 10.6425C8.08819 10.6345 8.40183 10.9553 8.40611 11.4199C8.41223 12.0345 8.40611 12.6491 8.40611 13.2637V13.5317L23.5547 13.5293Z" fill="black"/>
<path d="M8.40791 7.49819C8.40791 7.81655 8.41463 8.13491 8.40791 8.45328C8.39629 8.8835 8.09304 9.1865 7.68707 9.18343C7.2811 9.18035 6.98335 8.87613 6.97907 8.44099C6.97296 7.81245 6.97296 7.18392 6.97907 6.55539C6.98335 6.12516 7.28477 5.81786 7.68707 5.81233C8.08937 5.8068 8.3914 6.11164 8.40974 6.54309C8.40974 6.55907 8.40974 6.57567 8.40974 6.59165V7.49819H8.40791Z" fill="black"/>
</g>
<defs>
<clipPath id="clip0_221_978">
<rect width="25" height="15" fill="white"/>
</clipPath>
</defs>
</svg>
