<svg width="21" height="22" viewBox="0 0 21 22" fill="none" xmlns="http://www.w3.org/2000/svg">
<path d="M10.4998 0.499023C13.2847 0.499023 15.9557 1.60535 17.9249 3.57462C19.8942 5.54389 21.0005 8.2148 21.0005 10.9998C21.0005 13.7847 19.8942 16.4557 17.9249 18.4249C15.9557 20.3942 13.2847 21.5005 10.4998 21.5005C7.7148 21.5005 5.04389 20.3942 3.07462 18.4249C1.10535 16.4557 -0.000976562 13.7847 -0.000976562 10.9998C-0.000976563 8.2148 1.10535 5.54389 3.07462 3.57462C5.04389 1.60535 7.7148 0.499023 10.4998 0.499023ZM12.0748 6.94602C12.8548 6.94602 13.4878 6.40452 13.4878 5.60202C13.4878 4.79952 12.8533 4.25802 12.0748 4.25802C11.2948 4.25802 10.6648 4.79952 10.6648 5.60202C10.6648 6.40452 11.2948 6.94602 12.0748 6.94602ZM12.3493 15.3865C12.3493 15.226 12.4048 14.809 12.3733 14.572L11.1403 15.991C10.8853 16.2595 10.5658 16.4455 10.4158 16.396C10.3477 16.371 10.2908 16.3225 10.2554 16.2592C10.2199 16.196 10.2082 16.1222 10.2223 16.051L12.2773 9.55902C12.4453 8.73552 11.9833 7.98402 11.0038 7.88802C9.97027 7.88802 8.44927 8.93652 7.52377 10.267C7.52377 10.426 7.49377 10.822 7.52527 11.059L8.75677 9.63852C9.01177 9.37302 9.30877 9.18552 9.45877 9.23652C9.53268 9.26305 9.59323 9.31749 9.62745 9.38816C9.66166 9.45883 9.6668 9.5401 9.64177 9.61452L7.60477 16.075C7.36927 16.831 7.81477 17.572 8.89477 17.74C10.4848 17.74 11.4238 16.717 12.3508 15.3865H12.3493Z" fill="white"/>
</svg>
