<svg width="20" height="20" viewBox="0 0 20 20" fill="none" xmlns="http://www.w3.org/2000/svg">
<path d="M6.66675 8.3314C6.66675 8.11038 6.75455 7.89842 6.91083 7.74214C7.06711 7.58586 7.27907 7.49807 7.50008 7.49807H12.5001C12.7211 7.49807 12.9331 7.58586 13.0893 7.74214C13.2456 7.89842 13.3334 8.11038 13.3334 8.3314C13.3334 8.55241 13.2456 8.76437 13.0893 8.92065C12.9331 9.07693 12.7211 9.16473 12.5001 9.16473H7.50008C7.27907 9.16473 7.06711 9.07693 6.91083 8.92065C6.75455 8.76437 6.66675 8.55241 6.66675 8.3314ZM7.50008 10.8314C7.27907 10.8314 7.06711 10.9192 6.91083 11.0755C6.75455 11.2318 6.66675 11.4437 6.66675 11.6647C6.66675 11.8857 6.75455 12.0977 6.91083 12.254C7.06711 12.4103 7.27907 12.4981 7.50008 12.4981H10.8334C11.0544 12.4981 11.2664 12.4103 11.4227 12.254C11.5789 12.0977 11.6667 11.8857 11.6667 11.6647C11.6667 11.4437 11.5789 11.2318 11.4227 11.0755C11.2664 10.9192 11.0544 10.8314 10.8334 10.8314H7.50008ZM8.71615e-05 9.99806C0.000512423 7.79648 0.727462 5.65656 2.06817 3.91028C3.40887 2.164 5.28839 0.908968 7.41515 0.339872C9.54191 -0.229223 11.797 -0.0805683 13.8307 0.762775C15.8643 1.60612 17.5629 3.09701 18.6627 5.00417C19.7626 6.91133 20.2024 9.12815 19.9138 11.3107C19.6252 13.4933 18.6244 15.5197 17.0667 17.0755C15.509 18.6313 13.4814 19.6295 11.2984 19.9153C9.11547 20.2012 6.8992 19.7586 4.99342 18.6564L1.09675 19.9564C0.95279 20.0045 0.798434 20.0123 0.650344 19.9791C0.502254 19.9458 0.366053 19.8728 0.256441 19.7678C0.146829 19.6628 0.0679695 19.5299 0.0283723 19.3834C-0.0112249 19.2368 -0.0100557 19.0823 0.0317539 18.9364L1.21842 14.7847C0.416781 13.3168 -0.00221809 11.6706 8.71615e-05 9.99806ZM10.0001 1.66474C8.52872 1.66464 7.08356 2.05412 5.81151 2.79358C4.53946 3.53304 3.48587 4.59611 2.75784 5.87473C2.02981 7.15336 1.65329 8.60195 1.66657 10.0733C1.67984 11.5446 2.08243 12.9861 2.83342 14.2514C2.8912 14.3491 2.92839 14.4577 2.94272 14.5703C2.95705 14.6829 2.94822 14.7973 2.91675 14.9064L2.06842 17.8731L4.83175 16.9531C4.94911 16.9139 5.07371 16.9014 5.19652 16.9163C5.31933 16.9313 5.43726 16.9735 5.54175 17.0397C6.63386 17.7309 7.87177 18.1585 9.15763 18.2889C10.4435 18.4193 11.742 18.2487 12.9506 17.7908C14.1592 17.3329 15.2448 16.6001 16.1214 15.6505C16.9981 14.7008 17.6418 13.5602 18.0018 12.3189C18.3617 11.0776 18.428 9.76957 18.1954 8.49823C17.9628 7.22689 17.4376 6.02708 16.6615 4.99364C15.8853 3.9602 14.8794 3.12146 13.7233 2.54371C12.5672 1.96596 11.2925 1.66504 10.0001 1.66474Z" fill="#949494"/>
</svg>
