<svg width="20" height="20" viewBox="0 0 20 20" fill="none" xmlns="http://www.w3.org/2000/svg">
<g clip-path="url(#clip0_2041_4923)">
<mask id="mask0_2041_4923" style="mask-type:luminance" maskUnits="userSpaceOnUse" x="-1" y="0" width="21" height="20">
<path d="M-0.000488281 0H19.9995V20H-0.000488281V0Z" fill="white"/>
</mask>
<g mask="url(#mask0_2041_4923)">
<path fill-rule="evenodd" clip-rule="evenodd" d="M14.512 11.985C14.2637 11.8609 13.0462 11.2625 12.8195 11.1792C12.5928 11.0967 12.4278 11.0559 12.262 11.3042C12.097 11.5517 11.6228 12.1092 11.4787 12.2742C11.3337 12.44 11.1895 12.46 10.942 12.3367C10.6945 12.2117 9.89618 11.9509 8.95035 11.1075C8.21451 10.4509 7.71701 9.64003 7.57285 9.3917C7.42868 9.1442 7.55701 9.01003 7.68118 8.8867C7.79285 8.77586 7.92868 8.59753 8.05285 8.45336C8.17701 8.30836 8.21785 8.20503 8.30035 8.0392C8.38368 7.8742 8.34201 7.73003 8.27951 7.60586C8.21784 7.4817 7.72285 6.26253 7.51618 5.7667C7.31535 5.2842 7.11118 5.35003 6.95951 5.3417C6.81451 5.33503 6.64951 5.33336 6.48451 5.33336C6.31951 5.33336 6.05118 5.39503 5.82451 5.64336C5.59701 5.89086 4.95785 6.49003 4.95785 7.7092C4.95785 8.92753 5.84451 10.105 5.96868 10.2709C6.09285 10.4359 7.71451 12.9375 10.1987 14.01C10.7903 14.265 11.2512 14.4175 11.6103 14.5309C12.2037 14.72 12.7437 14.6934 13.1703 14.6292C13.6453 14.5584 14.6353 14.03 14.842 13.4517C15.0478 12.8734 15.0478 12.3775 14.9862 12.2742C14.9245 12.1709 14.7595 12.1092 14.5112 11.985M9.99285 18.1542H9.98951C8.51404 18.1545 7.06566 17.7578 5.79618 17.0059L5.49618 16.8275L2.37785 17.6459L3.21035 14.6059L3.01451 14.2942C2.18963 12.9812 1.75309 11.4615 1.75535 9.91086C1.75701 5.3692 5.45201 1.6742 9.99618 1.6742C11.0784 1.67137 12.1505 1.88346 13.1501 2.29817C14.1497 2.71287 15.0571 3.32194 15.8195 4.09003C16.5864 4.85375 17.1942 5.76193 17.6079 6.76206C18.0216 7.76219 18.2329 8.8344 18.2295 9.9167C18.2278 14.4584 14.5328 18.1542 9.99285 18.1542ZM17.0028 2.9067C16.0848 1.98257 14.9924 1.2498 13.7891 0.75086C12.5858 0.251916 11.2955 -0.00328869 9.99285 3.19938e-05C4.53118 3.19938e-05 0.0845117 4.44586 0.0828451 9.91003C0.0803142 11.649 0.53649 13.3579 1.40535 14.8642L-0.000488281 20L5.25285 18.6217C6.70607 19.4135 8.33459 19.8283 9.98951 19.8284H9.99368C15.4553 19.8284 19.902 15.3825 19.9037 9.91753C19.9077 8.61526 19.6535 7.32511 19.1557 6.12173C18.6579 4.91834 17.9265 3.82559 17.0037 2.9067" fill="#25D366"/>
</g>
</g>
<defs>
<clipPath id="clip0_2041_4923">
<rect width="20" height="20" fill="white" transform="translate(-0.000488281)"/>
</clipPath>
</defs>
</svg>
