<svg width="17" height="18" viewBox="0 0 17 18" fill="none" xmlns="http://www.w3.org/2000/svg">
<path d="M14.875 4.53676H1.59375V3.99662L13.2812 3.04598V3.99662H14.875V2.37622C14.875 1.18792 13.9283 0.35395 12.7723 0.521392L2.10375 2.0705C0.946688 2.23902 0 3.34846 0 4.53676V15.3395C0 15.9125 0.223883 16.462 0.622398 16.8672C1.02091 17.2724 1.56141 17.5 2.125 17.5H14.875C15.4386 17.5 15.9791 17.2724 16.3776 16.8672C16.7761 16.462 17 15.9125 17 15.3395V6.6973C17 6.12429 16.7761 5.57474 16.3776 5.16956C15.9791 4.76438 15.4386 4.53676 14.875 4.53676ZM13.2812 12.1051C13.0719 12.1051 12.8646 12.0631 12.6712 11.9815C12.4778 11.9 12.3021 11.7806 12.1541 11.63C12.0061 11.4794 11.8887 11.3007 11.8087 11.104C11.7286 10.9073 11.6874 10.6965 11.6875 10.4836C11.6876 10.2708 11.7289 10.06 11.8091 9.86338C11.8892 9.66674 12.0067 9.48809 12.1548 9.33762C12.3029 9.18715 12.4787 9.06781 12.6722 8.98642C12.8656 8.90502 13.0729 8.86317 13.2823 8.86324C13.7051 8.86338 14.1106 9.0343 14.4095 9.33839C14.7084 9.64247 14.8762 10.0548 14.8761 10.4847C14.8759 10.9146 14.7078 11.3269 14.4087 11.6307C14.1096 11.9346 13.7041 12.1053 13.2812 12.1051Z" fill="#444444"/>
</svg>
