<svg width="17" height="20" viewBox="0 0 17 20" fill="none" xmlns="http://www.w3.org/2000/svg">
<g clip-path="url(#clip0_234_1117)">
<path d="M11.0377 19.4999H1.55427C1.53883 19.4893 1.52187 19.481 1.50394 19.4754C0.596815 19.3308 -0.00301613 18.5516 1.14078e-05 17.6441C0.0128784 13.7667 0.0053096 9.88894 0.0053096 6.01154V5.77883H0.232375C1.32153 5.77883 2.41107 5.77883 3.50022 5.77883C3.80638 5.77883 4.10346 5.74165 4.37783 5.60187C5.05108 5.25874 5.37768 4.70743 5.37881 3.96615C5.38032 2.89005 5.38032 1.81394 5.37881 0.737836V0.512181C5.43331 0.506976 5.46964 0.501028 5.50559 0.501028C7.91702 0.501028 10.3288 0.495823 12.7403 0.508835C12.9975 0.514055 13.2506 0.573515 13.4824 0.683188C14.2071 1.02371 14.5042 1.63302 14.5042 2.39958C14.5042 5.65293 14.5042 8.9059 14.5042 12.1585V12.3678C14.209 12.3678 13.9335 12.3555 13.6595 12.3697C12.5946 12.4251 11.684 12.8384 10.943 13.5801C9.53675 14.9861 9.32407 17.069 10.4072 18.72C10.5896 18.9977 10.8261 19.2408 11.0377 19.4999ZM7.24302 7.66028C6.06581 7.66028 4.88848 7.66028 3.71102 7.66028C3.62952 7.65657 3.54788 7.66307 3.46806 7.67961C3.17779 7.75396 3.01847 8.00155 3.05858 8.30044C3.09643 8.57962 3.32652 8.7655 3.66787 8.76587C6.05433 8.76835 8.44066 8.76724 10.8269 8.76253C10.9643 8.75895 11.0984 8.72053 11.2163 8.651C11.4248 8.52758 11.4967 8.2759 11.4237 8.04913C11.3442 7.80191 11.1485 7.6599 10.87 7.65953C9.66101 7.65904 8.45201 7.65928 7.24302 7.66028ZM7.23583 11.1511H9.65369C10.0567 11.1511 10.4598 11.1563 10.8647 11.1511C11.3139 11.1436 11.5868 10.7287 11.3945 10.3536C11.2712 10.1146 11.0566 10.0399 10.7996 10.0399C8.43208 10.0399 6.06455 10.0399 3.69701 10.0399C3.62788 10.0397 3.55894 10.0472 3.49152 10.0622C3.20882 10.1261 3.04155 10.3458 3.05593 10.6287C3.07145 10.941 3.31214 11.1492 3.66863 11.1492C4.85593 11.1519 6.04499 11.1525 7.23583 11.1511ZM5.43331 13.5303C6.02443 13.5303 6.61518 13.5303 7.20593 13.5303C7.55561 13.5303 7.7963 13.3143 7.80879 13.0005C7.82128 12.6868 7.58399 12.4358 7.22409 12.4332C6.02973 12.4265 4.83537 12.4265 3.641 12.4332C3.27316 12.4351 3.04571 12.6633 3.05063 12.9909C3.05555 13.3184 3.297 13.5284 3.66068 13.5295C4.25143 13.5314 4.84407 13.5299 5.43331 13.5299V13.5303ZM5.43331 14.8199C4.84142 14.8199 4.24916 14.8136 3.65766 14.8251C3.52138 14.8291 3.38845 14.8675 3.27164 14.9366C3.07296 15.0571 3.00446 15.3024 3.06842 15.5285C3.12784 15.7374 3.31857 15.9062 3.55207 15.9073C4.80509 15.9132 6.05774 15.9106 7.31076 15.9073C7.37976 15.9042 7.4472 15.8861 7.5083 15.8545C7.73991 15.7404 7.85193 15.4827 7.78949 15.2266C7.76091 15.1113 7.69384 15.0087 7.59898 14.9352C7.50412 14.8617 7.38693 14.8215 7.2661 14.821C6.65567 14.8162 6.04487 14.8195 5.43406 14.8195L5.43331 14.8199Z" fill="#444444"/>
<path d="M0.0170223 4.68251C-0.0177944 4.44682 0.103307 4.30109 0.244088 4.16205C1.21895 3.20565 2.19357 2.24876 3.16793 1.29137C3.37267 1.09025 3.57627 0.888012 3.78441 0.688751C3.90892 0.568675 4.04932 0.483543 4.26504 0.510681V0.70548C4.26504 1.7687 4.26504 2.83192 4.26504 3.89513C4.26504 4.43195 4.01299 4.68177 3.47031 4.68251C2.38166 4.68251 1.29275 4.68251 0.203594 4.68251H0.0170223Z" fill="#444444"/>
<path d="M13.9819 13.4554C13.3685 13.4439 12.7656 13.6129 12.2507 13.9405C11.7358 14.2682 11.3324 14.7395 11.0922 15.2941C10.852 15.8487 10.7862 16.4611 10.903 17.0527C11.0198 17.6444 11.314 18.1882 11.7478 18.6143C12.1816 19.0405 12.7352 19.3295 13.3375 19.4443C13.9398 19.559 14.5632 19.4943 15.1278 19.2584C15.6923 19.0225 16.1722 18.6262 16.5057 18.1203C16.8393 17.6145 17.0113 17.0223 16.9996 16.4198C16.9846 15.6382 16.6618 14.8927 16.0991 14.34C15.5364 13.7872 14.7775 13.4701 13.9819 13.4554ZM13.709 18.0202C13.6145 18.1125 13.4865 18.1644 13.3531 18.1644C13.2197 18.1644 13.0918 18.1125 12.9972 18.0202L11.7063 16.7517C11.6577 16.7064 11.6187 16.6519 11.5918 16.5916C11.5649 16.5312 11.5506 16.4662 11.5497 16.4003C11.5488 16.3344 11.5614 16.269 11.5866 16.208C11.6119 16.147 11.6493 16.0915 11.6968 16.0449C11.7442 15.9983 11.8006 15.9616 11.8628 15.9368C11.9249 15.9119 11.9915 15.8996 12.0585 15.9005C12.1256 15.9014 12.1918 15.9154 12.2533 15.9418C12.3147 15.9683 12.3701 16.0065 12.4163 16.0543L13.2727 16.8945C13.294 16.9154 13.3228 16.9271 13.3529 16.9271C13.383 16.9271 13.4119 16.9154 13.4332 16.8945L15.4204 14.9428C15.5046 14.8577 15.6169 14.8048 15.7371 14.7933C15.8574 14.7818 15.9779 14.8125 16.0773 14.8799C16.1367 14.9217 16.186 14.9756 16.222 15.0379C16.258 15.1002 16.2797 15.1695 16.2857 15.2409C16.2917 15.3124 16.2818 15.3842 16.2566 15.4515C16.2315 15.5188 16.1917 15.5798 16.1402 15.6305L13.709 18.0202Z" fill="#444444"/>
</g>
<defs>
<clipPath id="clip0_234_1117">
<rect width="17" height="19" fill="white" transform="translate(0 0.5)"/>
</clipPath>
</defs>
</svg>
