<svg width="16" height="16" viewBox="0 0 16 16" fill="none" xmlns="http://www.w3.org/2000/svg">
<path d="M13.5999 5.8999H7.2999C6.5267 5.8999 5.8999 6.5267 5.8999 7.2999V13.5999C5.8999 14.3731 6.5267 14.9999 7.2999 14.9999H13.5999C14.3731 14.9999 14.9999 14.3731 14.9999 13.5999V7.2999C14.9999 6.5267 14.3731 5.8999 13.5999 5.8999Z" stroke="#FF0A25" stroke-width="1.5" stroke-linecap="round" stroke-linejoin="round"/>
<path d="M3.1 10.1H2.4C2.0287 10.1 1.6726 9.9525 1.41005 9.68995C1.1475 9.4274 1 9.0713 1 8.7V2.4C1 2.0287 1.1475 1.6726 1.41005 1.41005C1.6726 1.1475 2.0287 1 2.4 1H8.7C9.0713 1 9.4274 1.1475 9.68995 1.41005C9.9525 1.6726 10.1 2.0287 10.1 2.4V3.1" stroke="#FF0A25" stroke-width="1.5" stroke-linecap="round" stroke-linejoin="round"/>
</svg>
