<svg width="20" height="19" viewBox="0 0 20 19" fill="none" xmlns="http://www.w3.org/2000/svg">
<path d="M4.32151 6.30735L4.32133 6.30734C2.9133 6.27424 1.76136 5.1444 1.78766 3.74289L4.32151 6.30735ZM4.32151 6.30735C5.71911 6.33971 6.90926 5.21282 6.93796 3.81655C6.96697 2.40587 5.80282 1.26934 4.38871 1.24186L4.38804 1.24185M4.32151 6.30735L4.38804 1.24185M4.38804 1.24185C2.98555 1.21646 1.81375 2.34081 1.78766 3.74275L4.38804 1.24185ZM0.5 9.73244C0.520556 9.63826 0.537422 9.55339 0.553183 9.47408C0.587453 9.30164 0.616497 9.1555 0.666883 8.99711L0.666894 8.99712L0.66791 8.99385C0.964972 8.03746 1.55962 7.31507 2.45286 6.80277L2.22646 6.40802L2.3063 6.31243L2.30651 6.31217L2.3176 6.29889C2.32617 6.29 2.33409 6.28051 2.34131 6.27051C2.29582 6.23253 2.25155 6.19402 2.20848 6.15501L2.04143 5.88615C2.02797 5.89451 2.01862 5.89972 2.00296 5.90845C1.99526 5.91274 1.98603 5.91789 1.97405 5.92467C1.32617 5.23228 1.03067 4.39264 1.13831 3.40195C1.22647 2.59024 1.60208 1.91024 2.23384 1.37624C2.86819 0.833201 3.69428 0.55424 4.53587 0.598876C5.37745 0.643511 6.16789 1.00821 6.73856 1.61516C7.8335 2.75561 7.95184 4.61496 6.7542 5.92498C6.7067 5.89768 6.65862 5.87097 6.60999 5.84485L6.37338 6.28532L6.69069 6.67173C6.73623 6.63434 6.78062 6.59635 6.82386 6.5578C7.41477 6.95941 7.88678 7.47287 8.229 8.10938C8.65417 8.90016 8.77051 9.74301 8.70425 10.6344L8.6726 10.1354C8.62404 10.1384 8.60107 10.1406 8.58623 10.142C8.57113 10.1434 8.56443 10.1441 8.54775 10.1441H8.53132H8.51489H8.49846H8.48203H8.4656H8.44917H8.43274H8.41632H8.39989H8.38346H8.36703H8.3506H8.33417H8.31774H8.30131H8.28489H8.26846H8.25203H8.2356L0.5 9.73244ZM7.47987 9.98469H8.06214L7.97412 9.40911C7.74835 7.93276 6.24486 6.2564 3.96606 6.47266L3.96604 6.47266C3.15324 6.54982 2.35063 6.9776 1.76443 7.51385C1.19498 8.03479 0.714504 8.76844 0.764081 9.5177L0.794981 9.98469H1.26299H7.47987Z" fill="black" stroke="url(#paint0_linear_276_10380)"/>
<path d="M5.77328 14.7533L5.45598 14.4505L5.56898 14.3406L6.95374 15.695L5.56843 17.0507L5.48205 16.9662L5.77662 16.7041L6.10393 16.4129L5.85825 16.0502L5.82851 16.0062L5.69443 15.8083L5.45616 15.7884C5.44672 15.7876 5.44185 15.7871 5.43414 15.7862C5.42705 15.7854 5.41756 15.7844 5.39992 15.7826C5.3731 15.78 5.3327 15.7764 5.28672 15.7764H0.5V12.3176H0.664914V15.115V15.615H1.16491H5.42809H6.6763L5.77328 14.7533Z" fill="black" stroke="url(#paint1_linear_276_10380)"/>
<path d="M11.2863 11.361C10.8937 10.7862 10.6836 10.1091 10.6838 9.41557L11.2863 11.361ZM11.2863 11.361C11.6787 11.9357 12.2354 12.382 12.8848 12.6449M11.2863 11.361L12.8848 12.6449M12.8848 12.6449C13.534 12.9078 14.2477 12.9761 14.936 12.8416M12.8848 12.6449L14.936 12.8416M14.936 12.8416C15.6244 12.707 16.258 12.3754 16.7559 11.887M14.936 12.8416L16.7559 11.887M16.7559 11.887C17.254 11.3985 17.5941 10.775 17.7312 10.0949M16.7559 11.887L17.7312 10.0949M17.7312 10.0949C17.8684 9.41474 17.7962 8.71014 17.5242 8.07081M17.7312 10.0949L17.5242 8.07081M17.5242 8.07081C17.2522 7.43159 16.7933 6.88748 16.2072 6.5061M17.5242 8.07081L16.2072 6.5061M16.2072 6.5061C15.6213 6.1248 14.9341 5.92283 14.2324 5.92457L16.2072 6.5061ZM18.7857 15.456C19.2268 16.1984 19.468 17.0724 19.497 18.0941H8.98608C9.01373 17.0726 9.25463 16.1977 9.69603 15.4549C10.2054 14.5977 11.0028 13.8813 12.1259 13.3177L12.9067 12.9259L12.1734 12.4511C11.7319 12.1652 11.3584 11.7912 11.0772 11.3544C10.796 10.9177 10.6133 10.4281 10.5408 9.9182C10.4682 9.40826 10.5073 8.889 10.6557 8.39472C10.804 7.90041 11.0583 7.44185 11.4024 7.04975C11.7465 6.65762 12.1725 6.34088 12.6527 6.1212C13.1329 5.90152 13.6558 5.78413 14.1867 5.77718C14.7175 5.77024 15.2435 5.87391 15.7296 6.08098C16.2157 6.28805 16.6504 6.5936 17.0052 6.97668L17.0066 6.97816C18.4722 8.54791 18.2896 11.1136 16.3029 12.4549L15.5968 12.9316L16.3574 13.3156C17.4801 13.8824 18.2766 14.5991 18.7857 15.456ZM18.7675 17.9531H19.3187L19.2652 17.4046C19.0414 15.1099 16.8064 12.779 13.7222 13.0807L13.7222 13.0807C12.3311 13.2169 11.1817 13.8446 10.3005 14.8972C9.69938 15.6079 9.32 16.4746 9.20949 17.3934L9.14217 17.9531H9.70591H18.7675ZM14.2323 5.92457C13.294 5.92678 12.3927 6.29297 11.7267 6.94616C11.0604 7.5997 10.684 8.4875 10.6838 9.41548L14.2323 5.92457Z" fill="black" stroke="url(#paint2_linear_276_10380)"/>
<defs>
<linearGradient id="paint0_linear_276_10380" x1="4.3608" y1="0.594238" x2="4.3608" y2="10.6441" gradientUnits="userSpaceOnUse">
<stop stop-color="#FF0A25"/>
<stop offset="1" stop-color="#FD4D3D"/>
</linearGradient>
<linearGradient id="paint1_linear_276_10380" x1="3.83436" y1="11.8176" x2="3.83436" y2="17.7503" gradientUnits="userSpaceOnUse">
<stop stop-color="#FF0A25"/>
<stop offset="1" stop-color="#FD4D3D"/>
</linearGradient>
<linearGradient id="paint2_linear_276_10380" x1="14.2417" y1="5.27686" x2="14.2417" y2="18.5941" gradientUnits="userSpaceOnUse">
<stop stop-color="#FF0A25"/>
<stop offset="1" stop-color="#FD4D3D"/>
</linearGradient>
</defs>
</svg>
