<svg width="14" height="15" viewBox="0 0 14 15" fill="none" xmlns="http://www.w3.org/2000/svg">
<path d="M13.4531 8.4707C13.7552 8.4707 14 8.22587 14 7.92383V4.3418C14 3.13561 13.0187 2.1543 11.8125 2.1543H2.1875C0.981313 2.1543 0 3.13561 0 4.3418V10.6582C0 11.8644 0.981313 12.8457 2.1875 12.8457H11.8125C13.0187 12.8457 14 11.8644 14 10.6582C14 10.3562 13.7552 10.1113 13.4531 10.1113C13.1511 10.1113 12.9062 10.3562 12.9062 10.6582C12.9062 11.2613 12.4156 11.752 11.8125 11.752H2.1875C1.58441 11.752 1.09375 11.2613 1.09375 10.6582V4.45768L5.84486 7.41204C6.20113 7.63355 6.60056 7.74432 7 7.74432C7.39944 7.74432 7.79887 7.63355 8.15514 7.41204L12.9062 4.45768V7.92383C12.9062 8.22587 13.1511 8.4707 13.4531 8.4707ZM7.57755 6.4832C7.22132 6.70471 6.77868 6.70473 6.42245 6.4832L1.55009 3.45345C1.72968 3.32423 1.94986 3.24805 2.1875 3.24805H11.8125C12.0501 3.24805 12.2703 3.32425 12.4499 3.45348L7.57755 6.4832Z" fill="#212121"/>
</svg>
