<svg width="14" height="14" viewBox="0 0 14 14" fill="none" xmlns="http://www.w3.org/2000/svg">
<path d="M13.2157 0H0.784319C0.636503 9.14978e-05 0.491718 0.0415522 0.366633 0.119609C0.241549 0.197665 0.141252 0.309143 0.0772867 0.441209C0.0133219 0.573275 -0.0117083 0.720558 0.00507736 0.866102C0.0218639 1.01165 0.0797834 1.14953 0.172168 1.26389L5.25773 7.56467C5.36935 7.70255 5.43024 7.874 5.43038 8.05078V12.0556C5.43038 12.1763 5.45875 12.2954 5.51324 12.4034C5.56773 12.5114 5.64684 12.6053 5.74431 12.6778L7.31392 13.8444C7.43052 13.9311 7.56917 13.9839 7.71433 13.9969C7.85949 14.0098 8.00542 13.9825 8.13579 13.9179C8.26615 13.8533 8.37578 13.754 8.45241 13.6311C8.52903 13.5083 8.56962 13.3667 8.56962 13.2222V8.05C8.56993 7.87349 8.63082 7.70234 8.74227 7.56467L13.8278 1.26389C13.9202 1.14953 13.9781 1.01165 13.9949 0.866102C14.0117 0.720558 13.9867 0.573275 13.9227 0.441209C13.8587 0.309143 13.7585 0.197665 13.6334 0.119609C13.5083 0.0415522 13.3635 9.14978e-05 13.2157 0Z" fill="#FF0A25"/>
</svg>
