<svg width="24" height="15" viewBox="0 0 24 15" fill="none" xmlns="http://www.w3.org/2000/svg">
<path d="M10.999 2.41774C10.999 2.41774 11.999 15.0694 10.1589 14.8711C10.1589 14.8711 5.67864 15.5057 2.95847 13.9589C-1.08179 11.6189 -1.72183 2.61604 5.75865 0.355403C7.23874 -0.120522 11.239 0.236422 10.999 2.41774Z" fill="#FFDD67"/>
<path d="M9.15905 4.83691C8.23899 4.83691 7.47894 4.08337 7.47894 3.17118C7.47894 2.25899 8.23899 1.50544 9.15905 1.50544H22.3199C23.24 1.50544 24 2.25899 24 3.17118C24 4.08337 23.24 4.83691 22.3199 4.83691H9.15905Z" fill="#FFDD67"/>
<path d="M7.87869 3.92477C7.87869 2.97292 8.63874 2.21937 9.5588 2.21937H22.7196C23.1997 2.21937 23.6797 2.45734 23.9597 2.77462C23.7997 2.02107 23.1197 1.42617 22.3196 1.42617H9.15877C8.23871 1.42617 7.47866 2.17971 7.47866 3.0919C7.47866 3.52817 7.63867 3.88511 7.87869 4.20239V3.92477Z" fill="#EBA352"/>
<path d="M12.7994 14.8711C13.7595 14.8711 14.5195 14.1175 14.5195 13.2054V13.1657C14.5195 12.2535 13.7595 11.5 12.7994 11.5H10.1593C9.19919 11.5 8.43914 12.2535 8.43914 13.1657V13.2054C8.43914 14.1175 9.19919 14.8711 10.1593 14.8711H12.7994Z" fill="#FFDD67"/>
<path d="M14.3196 11.4998C15.2797 11.4998 16.0397 10.7462 16.0397 9.83402V9.79436C16.0397 8.88217 15.2797 8.12862 14.3196 8.12862H11.6795C10.7194 8.12862 9.95934 8.88217 9.95934 9.79436V9.83402C9.95934 10.7462 10.7194 11.4998 11.6795 11.4998H14.3196ZM14.5196 8.12862C15.4797 8.12862 16.2397 7.37508 16.2397 6.46289V6.42323C16.2397 5.51104 15.4797 4.75749 14.5196 4.75749H11.8795C10.9194 4.75749 10.1594 5.51104 10.1594 6.42323V6.46289C10.1594 7.37508 10.9194 8.12862 11.8795 8.12862H14.5196Z" fill="#FFDD67"/>
<path d="M9.07892 13.6417C9.07892 12.6898 9.83897 11.9759 10.759 11.9759H13.3992C13.6392 11.9759 13.8792 12.0156 14.1192 12.1346C13.7992 11.738 13.3192 11.4604 12.7592 11.4604H10.119C9.15893 11.4604 8.43888 12.1742 8.43888 13.1261V13.1658C8.43888 13.84 8.83891 14.4349 9.43895 14.6729C9.19893 14.3952 9.07892 14.0383 9.07892 13.6417ZM10.599 10.3102C10.599 9.35836 11.3591 8.64448 12.2791 8.64448H14.9193C15.1593 8.64448 15.3993 8.68414 15.6393 8.80312C15.3193 8.40651 14.8393 8.12889 14.2793 8.12889H11.6391C10.679 8.12889 9.95898 8.88244 9.95898 9.79463V9.83429C9.95898 10.5085 10.359 11.1034 10.959 11.3414C10.719 11.0638 10.599 10.7068 10.599 10.3102ZM10.799 6.97874C10.799 6.02689 11.5591 5.31301 12.4791 5.31301H15.1193C15.3593 5.31301 15.5993 5.35267 15.8394 5.47165C15.5193 5.07504 15.0393 4.79742 14.4793 4.79742H11.8391C10.879 4.79742 10.159 5.55097 10.159 6.46316V6.50282C10.159 7.17704 10.559 7.77195 11.1591 8.00991C10.919 7.69263 10.799 7.33568 10.799 6.97874ZM8.47889 3.92489C9.39895 5.82859 7.79884 10.1516 3.79859 9.27904C7.95885 9.27904 8.6789 5.55097 8.47889 3.92489Z" fill="#EBA352"/>
<path d="M12.5991 4.6387C13.4392 6.02681 12.1191 6.26478 12.0391 8.60474C11.9991 9.63591 9.87894 10.0722 9.11889 8.52542C8.03882 6.38376 9.55892 6.22512 8.95888 5.66987C8.31884 5.11463 8.19883 4.59904 7.47879 4.12312C6.95875 3.76617 7.7588 1.10893 8.83887 0.831306C10.959 0.315722 11.279 2.45738 12.5991 4.6387Z" fill="#EBA352"/>
<path d="M12.239 4.48003C13.0791 5.90781 11.759 6.18543 11.679 8.60471C11.639 9.67554 9.43883 10.1515 8.63878 8.52539C7.5187 6.30441 9.11881 6.10611 8.47877 5.59053C7.83873 4.99562 7.67872 4.48003 6.91867 3.96445C6.35863 3.60751 4.2785 4.55935 4.2785 4.55935C4.2785 4.55935 2.31837 1.82279 3.43845 1.26754C5.51858 0.236375 7.11868 0.513997 8.31876 0.553658C11.1589 0.632978 10.8789 2.21939 12.239 4.48003Z" fill="#FFDD67"/>
<path d="M10.8391 1.70384C10.1191 0.196748 6.15881 0.276068 4.23869 1.38656C-0.521614 4.20244 -0.441608 10.3895 2.11856 13.2847C-0.801632 10.5878 -1.08165 4.00414 3.83866 0.950294C5.79879 -0.239516 10.3591 -0.63612 10.8391 1.70384Z" fill="#EBA352"/>
<path d="M6.87852 4.28181C6.71851 4.16283 6.39849 4.20249 6.03846 4.24215C6.5985 4.08351 7.15853 3.96453 7.39855 4.12317C8.1586 4.5991 8.31861 4.87672 8.95865 5.47163C9.55869 6.02687 7.99859 6.18551 9.11866 8.40649C9.51868 9.23936 10.3187 9.51698 10.9988 9.43766C10.2787 9.75494 9.15866 9.5963 8.59863 8.52547C7.47855 6.30449 9.07866 6.10619 8.43862 5.59061C7.79857 5.03536 7.63857 4.75774 6.87852 4.28181Z" fill="#EBA352"/>
</svg>
