<svg width="15" height="17" viewBox="0 0 15 17" fill="none" xmlns="http://www.w3.org/2000/svg">
<g clip-path="url(#clip0_306_1017)">
<path d="M14.9343 5.22156C14.8965 4.75888 14.812 4.30606 14.6551 3.87197C14.2724 2.81307 13.4945 2.31722 12.5103 2.1219C11.8048 1.98183 11.0925 1.95768 10.3782 1.97559C10.2694 1.97836 10.2339 1.95102 10.2362 1.82636C10.244 1.41254 10.2436 0.998313 10.2375 0.584498C10.2321 0.228153 9.96812 -0.0235225 9.63987 0.0014646C9.341 0.0246471 9.14295 0.28368 9.14282 0.656544C9.14282 3.2702 9.14282 5.88395 9.14282 8.49779C9.14282 11.1177 9.14282 13.7376 9.14282 16.3575C9.14282 16.7356 9.36896 16.9987 9.68861 16.9997C10.0083 17.0006 10.2371 16.7392 10.2388 16.3621C10.2404 15.9791 10.2467 15.5957 10.2354 15.2129C10.2308 15.0602 10.2656 15.0186 10.4099 15.0225C11.1699 15.0425 11.9285 15.0189 12.675 14.8405C13.5929 14.6209 14.298 14.1088 14.6537 13.1278C14.811 12.694 14.8915 12.2406 14.9348 11.7785C15.0143 10.9282 14.9989 10.075 14.992 9.22283C14.982 7.88921 15.0429 6.55379 14.9343 5.22156ZM13.8992 10.4303C13.8981 11.0107 13.8876 11.5917 13.7776 12.1631C13.5865 13.1557 13.1934 13.5585 12.264 13.7245C11.625 13.8388 10.9813 13.8484 10.3352 13.8425C10.2434 13.8425 10.2368 13.8009 10.2375 13.7216C10.2403 13.3572 10.2388 12.9928 10.2388 12.6284V8.4957C10.2388 6.77853 10.2409 5.06136 10.235 3.34419C10.235 3.18871 10.2702 3.15512 10.4109 3.15512C11.0736 3.15512 11.7344 3.16525 12.3883 3.30185C13.2046 3.47232 13.5991 3.88835 13.7663 4.76901C13.8796 5.36509 13.8936 5.97048 13.8958 6.57558C13.901 7.86066 13.9021 9.14555 13.8992 10.4303Z" fill="#FF0A25"/>
<path d="M0.00127497 8.34915C0.0111518 7.55872 -0.020018 6.61296 0.0269292 5.66789C0.0495048 5.21076 0.10107 4.75794 0.206508 4.31358C0.489602 3.11392 1.21344 2.41775 2.31657 2.15858C2.84838 2.03365 3.38814 1.97812 3.93124 1.97465C4.84504 1.96882 5.75884 1.97257 6.67265 1.97326C7.03424 1.97326 7.28668 2.218 7.28732 2.56532C7.28796 2.91264 7.03501 3.15904 6.67457 3.15946C5.78924 3.16029 4.90417 3.16029 4.01936 3.15946C3.5451 3.15996 3.07192 3.2083 2.60594 3.30383C1.79296 3.47041 1.39366 3.89436 1.22626 4.7721C1.11492 5.3561 1.09799 5.94899 1.09594 6.5423C1.09286 7.84635 1.09286 9.1504 1.09594 10.4545C1.09748 11.029 1.10877 11.6043 1.21715 12.17C1.40661 13.16 1.81092 13.5737 2.73447 13.7247C3.19157 13.8017 3.65348 13.8403 4.11608 13.8402C5.00132 13.8364 5.88639 13.8364 6.77129 13.8402C7.03219 13.841 7.23447 14.0097 7.30707 14.2718C7.37121 14.5058 7.29027 14.761 7.10081 14.9112C7.00339 14.9883 6.88528 15.0287 6.76462 15.0261C5.77693 15.0243 4.78835 15.0331 3.80053 15.0189C3.2693 15.0131 2.74025 14.9445 2.2228 14.8143C1.07272 14.5211 0.405328 13.7323 0.16264 12.496C0.0288532 11.809 0.0073037 11.1122 0.00230114 10.4138C-0.00218835 9.7773 0.00127497 9.14068 0.00127497 8.34915Z" fill="#FF0A25"/>
<path d="M4.03074 5.72428C4.03177 5.44664 4.18916 5.233 4.42312 5.16179C4.53354 5.12726 4.65122 5.1315 4.75927 5.1739C4.86731 5.21631 4.96016 5.29469 5.02446 5.39778C5.09501 5.50814 5.12464 5.63238 5.12476 5.76467C5.12528 7.58614 5.12498 9.40757 5.12387 11.2289C5.12323 11.5899 4.88515 11.86 4.58102 11.8647C4.2674 11.8697 4.03023 11.5996 4.02946 11.2262C4.02502 9.37711 4.02328 7.58227 4.03074 5.72428Z" fill="#212121"/>
</g>
<defs>
<clipPath id="clip0_306_1017">
<rect width="15" height="17" fill="white"/>
</clipPath>
</defs>
</svg>
