<svg width="9" height="34" viewBox="0 0 9 34" fill="none" xmlns="http://www.w3.org/2000/svg">
<path d="M8.85363 0.853553C9.04889 0.658291 9.04889 0.341709 8.85363 0.146447C8.65836 -0.0488155 8.34178 -0.0488155 8.14652 0.146447L8.85363 0.853553ZM8.50007 34C8.77622 34 9.00007 33.7761 9.00007 33.5V29C9.00007 28.7239 8.77622 28.5 8.50007 28.5C8.22393 28.5 8.00007 28.7239 8.00007 29V33H4.00007C3.72393 33 3.50007 33.2239 3.50007 33.5C3.50007 33.7761 3.72393 34 4.00007 34H8.50007ZM8.14652 0.146447C7.72945 0.563515 7.30125 1.02871 6.8712 1.53787L7.63516 2.18313C8.04798 1.69438 8.45727 1.24991 8.85363 0.853553L8.14652 0.146447ZM4.65144 4.58386C4.01132 5.60274 3.40473 6.71428 2.86796 7.90324L3.77938 8.31472C4.2962 7.16995 4.88079 6.09856 5.4982 5.11584L4.65144 4.58386ZM1.57069 11.4445C1.2345 12.6329 0.982206 13.8733 0.840752 15.1542L1.83471 15.2639C1.96966 14.0419 2.21066 12.8559 2.53293 11.7167L1.57069 11.4445ZM0.763251 18.9384C0.850332 20.1635 1.0503 21.4121 1.38299 22.6753L2.35002 22.4206C2.03361 21.2193 1.84353 20.0323 1.76073 18.8675L0.763251 18.9384ZM2.67417 26.236C3.18201 27.3269 3.79859 28.421 4.53549 29.5132L5.36445 28.9538C4.65618 27.9041 4.06576 26.8558 3.58074 25.814L2.67417 26.236ZM6.85417 32.4853C7.26144 32.9428 7.69194 33.399 8.14652 33.8536L8.85363 33.1464C8.41237 32.7052 7.99517 32.263 7.60106 31.8204L6.85417 32.4853Z" fill="#FF0A25"/>
</svg>
