<svg width="17" height="18" viewBox="0 0 17 18" fill="none" xmlns="http://www.w3.org/2000/svg">
<path fill-rule="evenodd" clip-rule="evenodd" d="M2.21651 0.5H14.7643C15.9833 0.5 16.9808 1.49866 16.9808 2.71902V3.63166H7.73221C5.93711 3.63166 4.46856 5.10213 4.46856 6.899V11.101C4.46856 12.8979 5.93711 14.3683 7.73221 14.3683H16.9808V15.281C16.9808 16.5013 15.9833 17.5 14.7643 17.5H2.21651C0.997276 17.5 0 16.5013 0 15.281V2.71902C0 1.49866 0.997276 0.5 2.21651 0.5ZM6.51988 12.3134C5.83381 8.98387 7.58543 6.48914 11.0565 6.10642V5.72447C11.0565 5.08063 11.7814 4.67282 12.3319 5.0348L16.5916 7.49702C17.1378 7.81292 17.1355 8.60934 16.5885 8.92294L12.2928 11.4064C11.7479 11.7221 11.057 11.325 11.057 10.694L11.0593 10.3778C9.56668 10.4943 8.94735 11.027 8.35129 12.4043C7.9488 13.3379 6.73545 13.3574 6.51988 12.3134ZM7.61023 11.1809C8.73204 9.22144 10.2579 9.1623 12.267 9.13235L12.2673 10.0222L15.4036 8.20947L12.2693 6.39749V7.23999C9.64749 7.37388 7.54298 8.16006 7.61023 11.1809Z" fill="#444444"/>
</svg>
