<svg width="20" height="22" viewBox="0 0 20 22" fill="none" xmlns="http://www.w3.org/2000/svg">
<path d="M14.9256 3.98198L15.3245 3.31717C16.9731 4.44387 18.2225 6.06498 18.8917 7.94773C19.5691 9.85321 19.6163 11.9259 19.0266 13.8603C18.4369 15.7947 17.2414 17.4884 15.6162 18.692C13.9911 19.8955 12.0223 20.5452 10 20.5452C7.97772 20.5452 6.00892 19.8955 4.38378 18.692C2.75863 17.4884 1.5631 15.7947 0.973375 13.8603C0.383653 11.9259 0.430938 9.85321 1.10826 7.94773C1.77774 6.06432 3.02773 4.44273 4.67729 3.31598L5.07641 3.98235C3.56824 5.02447 2.42912 6.51849 1.82367 8.24977C1.21248 9.99744 1.17728 11.895 1.72322 13.6641C2.26916 15.4332 3.36752 16.9809 4.85727 18.0803C6.34702 19.1796 8.14979 19.7728 10.0013 19.7728C11.8527 19.7728 13.6555 19.1796 15.1452 18.0803C16.635 16.9809 17.7333 15.4332 18.2793 13.6641C18.8252 11.895 18.79 9.99744 18.1788 8.24977C17.5733 6.51829 16.434 5.02412 14.9256 3.98198Z" fill="black" stroke="url(#paint0_linear_234_1226)" stroke-width="1.12644"/>
<path d="M9.56249 9.53102V0.657459H10.436V9.53102H9.56249Z" fill="black" stroke="url(#paint1_linear_234_1226)" stroke-width="1.12644"/>
<defs>
<linearGradient id="paint0_linear_234_1226" x1="10" y1="2.72729" x2="10" y2="21.1084" gradientUnits="userSpaceOnUse">
<stop stop-color="#FF0A25"/>
<stop offset="1" stop-color="#FD4D3D"/>
</linearGradient>
<linearGradient id="paint1_linear_234_1226" x1="9.99927" y1="0.0942383" x2="9.99927" y2="10.0942" gradientUnits="userSpaceOnUse">
<stop stop-color="#FF0A25"/>
<stop offset="1" stop-color="#FD4D3D"/>
</linearGradient>
</defs>
</svg>
