<svg width="14" height="15" viewBox="0 0 14 15" fill="none" xmlns="http://www.w3.org/2000/svg">
<path d="M11.293 10.1283C11.595 10.1283 11.8398 9.88347 11.8398 9.58146V2.6875C11.8398 1.48131 10.8585 0.5 9.65234 0.5H4.34766C3.14147 0.5 2.16016 1.48131 2.16016 2.6875V12.3125C2.16016 13.5187 3.14147 14.5 4.34766 14.5H9.65234C10.8585 14.5 11.8398 13.5187 11.8398 12.3125C11.8398 12.0105 11.595 11.7656 11.293 11.7656C10.9909 11.7656 10.7461 12.0105 10.7461 12.3125C10.7461 12.9156 10.2554 13.4062 9.65234 13.4062H4.34766C3.74456 13.4062 3.25391 12.9156 3.25391 12.3125V2.6875C3.25391 2.08441 3.74456 1.59375 4.34766 1.59375H9.65234C10.2554 1.59375 10.7461 2.08441 10.7461 2.6875V9.58146C10.7461 9.88347 10.9909 10.1283 11.293 10.1283Z" fill="#212121"/>
<path d="M7 12.562C7.30203 12.562 7.54688 12.3172 7.54688 12.0151C7.54688 11.7131 7.30203 11.4683 7 11.4683C6.69797 11.4683 6.45312 11.7131 6.45312 12.0151C6.45312 12.3172 6.69797 12.562 7 12.562Z" fill="#212121"/>
<path d="M8.09375 2.9917C8.09375 2.68966 7.84891 2.44482 7.54688 2.44482H6.45312C6.15109 2.44482 5.90625 2.68966 5.90625 2.9917C5.90625 3.29374 6.15109 3.53857 6.45312 3.53857H7.54688C7.84891 3.53857 8.09375 3.29371 8.09375 2.9917Z" fill="#212121"/>
</svg>
