<svg width="24" height="24" viewBox="0 0 24 24" fill="none" xmlns="http://www.w3.org/2000/svg">
<g clip-path="url(#clip0_252_8438)">
<path d="M24.0001 16.7831C24.0026 16.9124 23.9784 17.0409 23.9292 17.1605C23.88 17.2801 23.8067 17.3884 23.7139 17.4785C23.6219 17.5698 23.5068 17.6344 23.381 17.6655C23.2552 17.6966 23.1233 17.693 22.9993 17.6551C22.6286 17.5549 22.4044 17.2454 22.4044 16.8332C22.4044 15.1209 22.4044 13.4102 22.4044 11.7012C22.4044 9.15354 22.4044 6.60715 22.4044 4.06202C22.4044 2.8805 21.6735 1.9408 20.5563 1.66515C20.3434 1.61253 9.36511 1.59499 4.09392 1.59687C2.63913 1.59687 1.60455 2.63618 1.60393 4.09272C1.60393 9.34962 1.60393 14.6065 1.60393 19.8634C1.60393 20.8257 1.98907 21.5624 2.80446 22.0755C3.12761 22.2791 3.25912 22.5823 3.19462 22.9331C3.16356 23.0873 3.08738 23.2288 2.97576 23.3395C2.86414 23.4503 2.72211 23.5254 2.56773 23.5552C2.35789 23.5924 2.14181 23.5459 1.9659 23.4255C0.721532 22.6424 0.0401659 21.5186 0.0163681 20.0514C-0.0143184 18.1619 0.00822682 16.2706 0.00822682 14.3806C0.00822682 10.9438 0.00843557 7.5076 0.00885307 4.07204C0.00947933 2.07048 1.32023 0.466092 3.27352 0.068285C3.53405 0.0156617 14.6545 0 19.9482 0C22.0023 0 23.6431 1.41707 23.9562 3.44558C23.9613 3.47502 23.9988 12.1836 24.0001 16.7831Z" fill="#FF0A25"/>
<path d="M7.09794 24C6.74741 24.003 6.39971 23.937 6.07464 23.8058C5.97424 23.766 5.87849 23.7153 5.78907 23.6548C5.13526 23.2018 4.79081 22.5772 4.80772 21.7885C4.87035 18.9575 6.10032 16.7768 8.54271 15.3434C11.4398 13.6401 14.9838 14.326 17.1763 16.5851C17.2683 16.6803 17.3566 16.7799 17.4424 16.8814C17.7518 17.2448 17.7255 17.7334 17.3829 18.0316C17.0404 18.3298 16.54 18.2859 16.22 17.917C15.3683 16.9278 14.2886 16.3282 13.0136 16.0889C10.3125 15.5815 7.84131 17.2166 6.8894 19.4374C6.57329 20.1614 6.41161 20.9434 6.4147 21.7334C6.4147 22.1982 6.61948 22.4006 7.08792 22.4006C10.3288 22.4006 13.5697 22.4094 16.8105 22.3931C17.3898 22.3931 17.8395 22.9193 17.6247 23.4769C17.5664 23.6505 17.4462 23.7966 17.2871 23.8872C17.1878 23.939 17.0772 23.9652 16.9652 23.9636C16.1116 23.9649 10.3726 23.9968 7.09794 24Z" fill="#FF0A25"/>
<path d="M12.0354 3.1993C9.32117 3.21496 7.20004 5.35059 7.2132 8.05756C7.22322 10.6762 9.38755 12.8062 12.0354 12.7993C14.6619 12.793 16.8137 10.6292 16.8037 8.00431C16.788 5.35497 14.6362 3.18426 12.0354 3.1993ZM11.9665 11.2031C11.5463 11.1986 11.1311 11.1112 10.7448 10.9459C10.3584 10.7806 10.0084 10.5407 9.71495 10.2399C9.42144 9.93904 9.19016 9.58324 9.03436 9.19285C8.87857 8.80246 8.80131 8.38515 8.80702 7.96484C8.82079 6.20384 10.2856 4.76985 12.041 4.79742C12.8858 4.81381 13.6898 5.16354 14.278 5.7704C14.8661 6.37727 15.1906 7.19206 15.1807 8.03722C15.1709 8.88239 14.8275 9.68941 14.2255 10.2824C13.6234 10.8754 12.8114 11.2063 11.9665 11.2031Z" fill="#FF0A25"/>
<path d="M19.2022 21.3362C19.2022 20.8012 19.2022 20.8012 18.6543 20.8012C18.2128 20.8012 17.9284 20.6659 17.7825 20.384C17.5076 19.8553 17.9078 19.2238 18.5015 19.2031C18.6837 19.1968 18.8666 19.1981 19.0482 19.2031C19.1734 19.2081 19.2116 19.1618 19.2073 19.0409C19.1985 18.8147 19.2022 18.5885 19.2022 18.3624C19.2022 17.8831 19.536 17.5298 19.9901 17.5254C20.4535 17.521 20.8005 17.8781 20.8042 18.3649C20.8042 18.5911 20.8092 18.8178 20.8011 19.0434C20.7967 19.1687 20.8368 19.2088 20.9601 19.2031C21.1549 19.1943 21.3503 19.1962 21.5451 19.2031C21.7498 19.2051 21.9457 19.2871 22.0907 19.4317C22.2357 19.5763 22.3184 19.772 22.321 19.9768C22.328 20.1861 22.2522 20.3898 22.1101 20.5436C21.9681 20.6975 21.7711 20.7891 21.562 20.7987C21.3594 20.8097 21.1564 20.8097 20.9539 20.7987C20.8286 20.7925 20.7954 20.8394 20.8005 20.9585C20.8092 21.1846 20.8055 21.4108 20.8036 21.6376C20.8005 22.125 20.4497 22.4877 19.9895 22.4814C19.5292 22.4752 19.2022 22.1162 19.201 21.6413L19.2022 21.3362Z" fill="#FF0A25"/>
</g>
<defs>
<clipPath id="clip0_252_8438">
<rect width="24" height="24" fill="white"/>
</clipPath>
</defs>
</svg>
