<svg width="17" height="18" viewBox="0 0 17 18" fill="none" xmlns="http://www.w3.org/2000/svg">
<path d="M3.82506 5.06098C3.82506 2.55244 5.92881 0.5 8.50006 0.5C11.0713 0.5 13.175 2.55244 13.175 5.06098C13.175 7.56952 11.0713 9.62197 8.50006 9.62197C5.92881 9.62197 3.82506 7.56952 3.82506 5.06098Z" fill="white"/>
<path d="M6.65127 10.5758C7.24627 10.7623 7.86252 10.866 8.50002 10.866C9.13751 10.866 9.75376 10.7623 10.3488 10.5758C12.2188 9.97453 14.3013 10.4721 15.5338 11.944C16.4475 13.0428 17 14.4526 17 15.966C17 16.816 16.2988 17.5002 15.4275 17.5002H1.57253C0.701279 17.5002 3.05176e-05 16.816 3.05176e-05 15.966C3.05176e-05 14.4526 0.55253 13.0428 1.46628 11.944C2.72003 10.4721 4.78127 9.97453 6.65127 10.5758Z" fill="white"/>
</svg>
