<svg width="22" height="27" viewBox="0 0 22 27" fill="none" xmlns="http://www.w3.org/2000/svg">
<path d="M21 17V4C21 2.34315 19.6569 1 18 1H4C2.34315 1 1 2.34315 1 4V22C1 23.6569 2.34315 25 4 25H10" stroke="#FF0A25" stroke-width="2" stroke-linecap="round"/>
<path d="M15.6075 25.1514C15.6075 24.2878 15.6075 24.2878 14.6602 24.2878C13.8969 24.2878 13.4054 24.0693 13.1531 23.6143C12.6778 22.7608 13.3696 21.7415 14.396 21.7081C14.7111 21.698 15.0272 21.7 15.3412 21.7081C15.5577 21.7162 15.6238 21.6414 15.6162 21.4462C15.601 21.0812 15.6075 20.7161 15.6075 20.3511C15.6075 19.5775 16.1846 19.0071 16.9695 19.0001C17.7707 18.993 18.3705 19.5694 18.377 20.3551C18.377 20.7202 18.3857 21.0862 18.3716 21.4503C18.364 21.6525 18.4333 21.7172 18.6466 21.7081C18.9833 21.694 19.3211 21.697 19.6578 21.7081C20.0118 21.7113 20.3504 21.8437 20.6011 22.0771C20.8518 22.3106 20.9947 22.6264 20.9992 22.957C21.0113 23.2949 20.8803 23.6236 20.6347 23.8719C20.3891 24.1203 20.0486 24.2682 19.687 24.2837C19.3369 24.3014 18.9859 24.3014 18.6358 24.2837C18.4192 24.2736 18.3618 24.3494 18.3705 24.5416C18.3857 24.9066 18.3792 25.2717 18.3759 25.6378C18.3705 26.4245 17.7642 27.01 16.9684 26.9999C16.1727 26.9898 15.6075 26.4103 15.6054 25.6438L15.6075 25.1514Z" fill="#FF0A25"/>
<path d="M16.5 13L8.25 17.7631L8.25 8.23686L16.5 13Z" stroke="#FF0A25" stroke-width="2" stroke-linejoin="round"/>
</svg>
